%TF.GenerationSoftware,Altium Limited,Altium Designer,24.4.1 (13)*%
G04 Layer_Color=16711935*
%FSLAX45Y45*%
%MOMM*%
%TF.SameCoordinates,B8B7DE2E-4358-4D64-837E-663932822D10*%
%TF.FilePolarity,Negative*%
%TF.FileFunction,Soldermask,Bot*%
%TF.Part,Single*%
G01*
G75*
%TA.AperFunction,TestPad*%
%ADD76O,2.30320X1.20320*%
%ADD77C,0.75000*%
%ADD78O,2.00320X1.20320*%
%TA.AperFunction,ViaPad*%
%ADD79C,4.20320*%
%TA.AperFunction,ComponentPad*%
%ADD80C,1.27020*%
%TA.AperFunction,ViaPad*%
%ADD81C,0.75320*%
%ADD82C,0.91440*%
%ADD83C,0.80320*%
%ADD84C,0.90320*%
D76*
X-1609750Y-167000D02*
D03*
Y697000D02*
D03*
D77*
X-1659750Y554000D02*
D03*
Y-24000D02*
D03*
D78*
X-2027750Y697000D02*
D03*
Y-167000D02*
D03*
D79*
X-1900000Y1250000D02*
D03*
Y-1250000D02*
D03*
X1900000D02*
D03*
Y1250000D02*
D03*
D80*
X334000Y-636600D02*
D03*
Y-433400D02*
D03*
X-174000Y-535000D02*
D03*
D81*
X-387500Y-285000D02*
D03*
X-1295000Y390000D02*
D03*
X-1302984Y-472386D02*
D03*
X-70700Y1175700D02*
D03*
X1772500Y-35000D02*
D03*
X1197500Y-1122500D02*
D03*
X-1545000Y1127500D02*
D03*
X525000Y-582500D02*
D03*
X32500Y117500D02*
D03*
X-405000Y-970000D02*
D03*
X272500Y157500D02*
D03*
X262500Y417500D02*
D03*
X875000Y982500D02*
D03*
X1075000Y222500D02*
D03*
X1492520Y-767878D02*
D03*
X1260000Y-325000D02*
D03*
X1165000Y-902500D02*
D03*
X1022500Y-900000D02*
D03*
X-412500Y-555000D02*
D03*
X-405000Y-695000D02*
D03*
X1322500Y-787500D02*
D03*
X892500Y-735000D02*
D03*
X620000Y-645000D02*
D03*
X62500Y970000D02*
D03*
X-162500Y392500D02*
D03*
X577500Y255000D02*
D03*
X550000Y357500D02*
D03*
X420000Y427500D02*
D03*
X385000Y315000D02*
D03*
X888916Y203124D02*
D03*
X1050000Y375000D02*
D03*
D82*
X-1295000Y27500D02*
D03*
D83*
X725000Y325000D02*
D03*
D84*
X-150000Y750000D02*
D03*
%TF.MD5,3a9e537980b25e02a94471eab21c10a8*%
M02*
