%TF.GenerationSoftware,Altium Limited,Altium Designer,24.4.1 (13)*%
G04 Layer_Color=8421504*
%FSLAX45Y45*%
%MOMM*%
%TF.SameCoordinates,B8B7DE2E-4358-4D64-837E-663932822D10*%
%TF.FilePolarity,Positive*%
%TF.FileFunction,Paste,Top*%
%TF.Part,Single*%
G01*
G75*
%TA.AperFunction,SMDPad,CuDef*%
%ADD11R,2.00000X0.70000*%
G04:AMPARAMS|DCode=12|XSize=1.4mm|YSize=1.7mm|CornerRadius=0.175mm|HoleSize=0mm|Usage=FLASHONLY|Rotation=270.000|XOffset=0mm|YOffset=0mm|HoleType=Round|Shape=RoundedRectangle|*
%AMROUNDEDRECTD12*
21,1,1.40000,1.35000,0,0,270.0*
21,1,1.05000,1.70000,0,0,270.0*
1,1,0.35000,-0.67500,-0.52500*
1,1,0.35000,-0.67500,0.52500*
1,1,0.35000,0.67500,0.52500*
1,1,0.35000,0.67500,-0.52500*
%
%ADD12ROUNDEDRECTD12*%
%TA.AperFunction,TestPad*%
G04:AMPARAMS|DCode=13|XSize=0.3mm|YSize=1.15mm|CornerRadius=0.0375mm|HoleSize=0mm|Usage=FLASHONLY|Rotation=270.000|XOffset=0mm|YOffset=0mm|HoleType=Round|Shape=RoundedRectangle|*
%AMROUNDEDRECTD13*
21,1,0.30000,1.07500,0,0,270.0*
21,1,0.22500,1.15000,0,0,270.0*
1,1,0.07500,-0.53750,-0.11250*
1,1,0.07500,-0.53750,0.11250*
1,1,0.07500,0.53750,0.11250*
1,1,0.07500,0.53750,-0.11250*
%
%ADD13ROUNDEDRECTD13*%
G04:AMPARAMS|DCode=14|XSize=0.6mm|YSize=1.15mm|CornerRadius=0.075mm|HoleSize=0mm|Usage=FLASHONLY|Rotation=270.000|XOffset=0mm|YOffset=0mm|HoleType=Round|Shape=RoundedRectangle|*
%AMROUNDEDRECTD14*
21,1,0.60000,1.00000,0,0,270.0*
21,1,0.45000,1.15000,0,0,270.0*
1,1,0.15000,-0.50000,-0.22500*
1,1,0.15000,-0.50000,0.22500*
1,1,0.15000,0.50000,0.22500*
1,1,0.15000,0.50000,-0.22500*
%
%ADD14ROUNDEDRECTD14*%
%TA.AperFunction,SMDPad,CuDef*%
G04:AMPARAMS|DCode=15|XSize=0.8mm|YSize=1mm|CornerRadius=0.1mm|HoleSize=0mm|Usage=FLASHONLY|Rotation=180.000|XOffset=0mm|YOffset=0mm|HoleType=Round|Shape=RoundedRectangle|*
%AMROUNDEDRECTD15*
21,1,0.80000,0.80000,0,0,180.0*
21,1,0.60000,1.00000,0,0,180.0*
1,1,0.20000,-0.30000,0.40000*
1,1,0.20000,0.30000,0.40000*
1,1,0.20000,0.30000,-0.40000*
1,1,0.20000,-0.30000,-0.40000*
%
%ADD15ROUNDEDRECTD15*%
%ADD16R,0.95000X0.95000*%
%ADD17R,0.30000X0.25000*%
%ADD18R,0.25000X0.30000*%
%ADD19R,0.55000X0.30000*%
%ADD20R,0.30000X0.55000*%
G04:AMPARAMS|DCode=21|XSize=1.3mm|YSize=1.1mm|CornerRadius=0.055mm|HoleSize=0mm|Usage=FLASHONLY|Rotation=180.000|XOffset=0mm|YOffset=0mm|HoleType=Round|Shape=RoundedRectangle|*
%AMROUNDEDRECTD21*
21,1,1.30000,0.99000,0,0,180.0*
21,1,1.19000,1.10000,0,0,180.0*
1,1,0.11000,-0.59500,0.49500*
1,1,0.11000,0.59500,0.49500*
1,1,0.11000,0.59500,-0.49500*
1,1,0.11000,-0.59500,-0.49500*
%
%ADD21ROUNDEDRECTD21*%
%ADD22R,0.95000X0.95000*%
%ADD23R,0.75000X0.30000*%
%ADD24R,0.30000X0.75000*%
%TA.AperFunction,ConnectorPad*%
%ADD25R,0.65000X1.70000*%
%ADD26R,1.00000X2.90000*%
%TA.AperFunction,SMDPad,CuDef*%
%ADD27R,1.57000X1.33000*%
G04:AMPARAMS|DCode=28|XSize=0.6mm|YSize=1.2mm|CornerRadius=0.075mm|HoleSize=0mm|Usage=FLASHONLY|Rotation=180.000|XOffset=0mm|YOffset=0mm|HoleType=Round|Shape=RoundedRectangle|*
%AMROUNDEDRECTD28*
21,1,0.60000,1.05000,0,0,180.0*
21,1,0.45000,1.20000,0,0,180.0*
1,1,0.15000,-0.22500,0.52500*
1,1,0.15000,0.22500,0.52500*
1,1,0.15000,0.22500,-0.52500*
1,1,0.15000,-0.22500,-0.52500*
%
%ADD28ROUNDEDRECTD28*%
%ADD29R,1.33000X1.57000*%
G36*
X595000Y-235500D02*
X580500Y-250000D01*
X545000D01*
Y-220000D01*
X595000D01*
Y-235500D01*
D02*
G37*
G36*
X625000Y-300000D02*
X595000D01*
Y-264500D01*
X609500Y-250000D01*
X625000D01*
Y-300000D01*
D02*
G37*
G36*
Y80000D02*
X609500D01*
X595000Y94500D01*
Y130000D01*
X625000D01*
Y80000D01*
D02*
G37*
G36*
X595000Y65500D02*
Y50000D01*
X545000D01*
Y80000D01*
X580500D01*
X595000Y65500D01*
D02*
G37*
G36*
X975000Y-250000D02*
X939500D01*
X925000Y-235500D01*
Y-220000D01*
X975000D01*
Y-250000D01*
D02*
G37*
G36*
X925000Y-264500D02*
Y-300000D01*
X895000D01*
Y-250000D01*
X910500D01*
X925000Y-264500D01*
D02*
G37*
G36*
Y94500D02*
X910500Y80000D01*
X895000D01*
Y130000D01*
X925000D01*
Y94500D01*
D02*
G37*
G36*
X975000Y50000D02*
X925000D01*
Y65500D01*
X939500Y80000D01*
X975000D01*
Y50000D01*
D02*
G37*
D11*
X-575000Y1322500D02*
D03*
Y1177500D02*
D03*
D12*
X-790000Y979300D02*
D03*
Y750700D02*
D03*
X-215000Y1175700D02*
D03*
Y1404300D02*
D03*
D13*
X-1552250Y290000D02*
D03*
Y240000D02*
D03*
Y190000D02*
D03*
Y340000D02*
D03*
Y390000D02*
D03*
Y440000D02*
D03*
Y140000D02*
D03*
Y90000D02*
D03*
D14*
Y505000D02*
D03*
Y585000D02*
D03*
Y25000D02*
D03*
Y-55000D02*
D03*
D15*
X492500Y-417500D02*
D03*
X642500D02*
D03*
X-1705000Y-340000D02*
D03*
X-1555000D02*
D03*
X400000Y-810000D02*
D03*
X250000D02*
D03*
X1162500Y-787500D02*
D03*
X1012500D02*
D03*
X-265000Y215000D02*
D03*
X-415000D02*
D03*
X-415000Y565000D02*
D03*
X-265000D02*
D03*
X-415000Y390000D02*
D03*
X-265000D02*
D03*
X-1695000Y860000D02*
D03*
X-1545000D02*
D03*
D16*
X1180000Y222500D02*
D03*
Y97500D02*
D03*
X1095000Y-485000D02*
D03*
Y-610000D02*
D03*
X1685000Y-617500D02*
D03*
Y-492500D02*
D03*
X385000Y77500D02*
D03*
Y-47500D02*
D03*
X875000Y862500D02*
D03*
Y737500D02*
D03*
X-1075000Y937500D02*
D03*
Y812500D02*
D03*
X-1300000Y937500D02*
D03*
Y812500D02*
D03*
D17*
X565000Y-235000D02*
D03*
X955000Y65000D02*
D03*
X565000D02*
D03*
X955000Y-235000D02*
D03*
D18*
X610000Y110000D02*
D03*
X910000Y-280000D02*
D03*
X610000D02*
D03*
X910000Y110000D02*
D03*
D19*
X947500Y-185000D02*
D03*
Y-135000D02*
D03*
Y-85000D02*
D03*
Y-35000D02*
D03*
Y15000D02*
D03*
X572500D02*
D03*
Y-35000D02*
D03*
Y-85000D02*
D03*
Y-135000D02*
D03*
Y-185000D02*
D03*
D20*
X860000Y102500D02*
D03*
X810000D02*
D03*
X760000D02*
D03*
X710000D02*
D03*
X660000D02*
D03*
Y-272500D02*
D03*
X710000D02*
D03*
X760000D02*
D03*
X810000D02*
D03*
X860000D02*
D03*
D21*
X1262500Y-435000D02*
D03*
Y-625000D02*
D03*
X1492500Y-435000D02*
D03*
Y-625000D02*
D03*
D22*
X1550000Y-147500D02*
D03*
X1425000D02*
D03*
X537500Y975000D02*
D03*
X412500D02*
D03*
X1247500Y440000D02*
D03*
X1372500D02*
D03*
D23*
X320000Y675000D02*
D03*
X730000D02*
D03*
D24*
X375000Y545000D02*
D03*
X425000D02*
D03*
X475000D02*
D03*
X525000D02*
D03*
X575000D02*
D03*
X625000D02*
D03*
X675000D02*
D03*
Y805000D02*
D03*
X625000D02*
D03*
X575000D02*
D03*
X525000D02*
D03*
X475000D02*
D03*
X425000D02*
D03*
X375000D02*
D03*
D25*
X72500Y-1070000D02*
D03*
X197500D02*
D03*
X447500D02*
D03*
X572500D02*
D03*
X322500D02*
D03*
X697500D02*
D03*
D26*
X-112500Y-1350000D02*
D03*
X882500D02*
D03*
D27*
X1435000Y213500D02*
D03*
Y16500D02*
D03*
D28*
X-320000Y745000D02*
D03*
X-415000D02*
D03*
X-510000D02*
D03*
Y985000D02*
D03*
X-415000D02*
D03*
X-320000D02*
D03*
D29*
X-1293500Y572500D02*
D03*
X-1096500D02*
D03*
%TF.MD5,12c06677257902a364d5c121653a16a7*%
M02*
