%TF.GenerationSoftware,Altium Limited,Altium Designer,24.4.1 (13)*%
G04 Layer_Color=0*
%FSLAX45Y45*%
%MOMM*%
%TF.SameCoordinates,B8B7DE2E-4358-4D64-837E-663932822D10*%
%TF.FilePolarity,Positive*%
%TF.FileFunction,Plated,1,2,PTH,Drill*%
%TF.Part,Single*%
G01*
G75*
%TA.AperFunction,ComponentDrill*%
%ADD88O,1.70000X0.60000*%
%ADD89O,1.40000X0.60000*%
%TA.AperFunction,OtherDrill,Pad Free-MH3 (-19mm,12.5mm)*%
%ADD90C,2.20000*%
%TA.AperFunction,OtherDrill,Pad Free-MH2 (-19mm,-12.5mm)*%
%ADD91C,2.20000*%
%TA.AperFunction,OtherDrill,Pad Free-MH1 (19mm,-12.5mm)*%
%ADD92C,2.20000*%
%TA.AperFunction,OtherDrill,Pad Free-MH (19mm,12.5mm)*%
%ADD93C,2.20000*%
%TA.AperFunction,ViaDrill,NotFilled*%
%ADD94C,0.30000*%
%ADD95C,0.71120*%
D88*
X-1609750Y-167000D02*
D03*
Y697000D02*
D03*
D89*
X-2027750D02*
D03*
Y-167000D02*
D03*
D90*
X-1900000Y1250000D02*
D03*
D91*
Y-1250000D02*
D03*
D92*
X1900000D02*
D03*
D93*
Y1250000D02*
D03*
D94*
X-387500Y-285000D02*
D03*
X-1295000Y390000D02*
D03*
X-1302984Y-472386D02*
D03*
X-70700Y1175700D02*
D03*
X1772500Y-35000D02*
D03*
X1197500Y-1122500D02*
D03*
X-1545000Y1127500D02*
D03*
X525000Y-582500D02*
D03*
X32500Y117500D02*
D03*
X-405000Y-970000D02*
D03*
X272500Y157500D02*
D03*
X262500Y417500D02*
D03*
X875000Y982500D02*
D03*
X1075000Y222500D02*
D03*
X1492520Y-767878D02*
D03*
X1260000Y-325000D02*
D03*
X1165000Y-902500D02*
D03*
X1022500Y-900000D02*
D03*
X-412500Y-555000D02*
D03*
X-405000Y-695000D02*
D03*
X1322500Y-787500D02*
D03*
X892500Y-735000D02*
D03*
X620000Y-645000D02*
D03*
X62500Y970000D02*
D03*
X-162500Y392500D02*
D03*
X577500Y255000D02*
D03*
X550000Y357500D02*
D03*
X420000Y427500D02*
D03*
X385000Y315000D02*
D03*
X725000Y325000D02*
D03*
X888916Y203124D02*
D03*
X1050000Y375000D02*
D03*
X-150000Y750000D02*
D03*
D95*
X-1295000Y27500D02*
D03*
%TF.MD5,93c0c415b460933104642f024d9943ba*%
M02*
