%TF.GenerationSoftware,Altium Limited,Altium Designer,24.4.1 (13)*%
G04 Layer_Physical_Order=2*
G04 Layer_Color=16711680*
%FSLAX45Y45*%
%MOMM*%
%TF.SameCoordinates,B8B7DE2E-4358-4D64-837E-663932822D10*%
%TF.FilePolarity,Positive*%
%TF.FileFunction,Copper,L2,Bot,Signal*%
%TF.Part,Single*%
G01*
G75*
%TA.AperFunction,Conductor*%
%ADD10C,0.30000*%
%ADD31C,0.40000*%
%ADD32C,0.50000*%
%TA.AperFunction,TestPad*%
%ADD41O,2.10000X1.00000*%
%ADD42C,0.65000*%
%ADD43O,1.80000X1.00000*%
%TA.AperFunction,ViaPad*%
%ADD44C,4.00000*%
%TA.AperFunction,ComponentPad*%
%ADD45C,1.06700*%
%TA.AperFunction,ViaPad*%
%ADD46C,0.55000*%
%ADD47C,0.71120*%
%ADD48C,0.60000*%
%ADD49C,0.70000*%
G36*
X1972810Y1476476D02*
X2013198Y1459747D01*
X2049546Y1435457D01*
X2065000Y1420000D01*
X2064999Y1419999D01*
X2065000Y1420000D01*
X2067361Y1417639D01*
X2085230Y1399774D01*
X2113309Y1357758D01*
X2132648Y1311070D01*
X2142503Y1261505D01*
X2142499Y1236237D01*
X2142499D01*
X2142500Y1236237D01*
X2142499Y-1248738D01*
X2142503Y-1274005D01*
X2132647Y-1323570D01*
X2113308Y-1370258D01*
X2085230Y-1412275D01*
X2067361Y-1430139D01*
X2060000Y-1437500D01*
X2047238Y-1450265D01*
X2017223Y-1470322D01*
X1983871Y-1484137D01*
X1948464Y-1491178D01*
X1930414Y-1491176D01*
X-1918166D01*
X-1942100Y-1491177D01*
X-1989049Y-1481838D01*
X-2033275Y-1463520D01*
X-2073076Y-1436925D01*
X-2103672Y-1406328D01*
X-2125157Y-1374174D01*
X-2139955Y-1338446D01*
X-2147500Y-1300518D01*
Y-1281183D01*
Y-196581D01*
X-2132500Y-193598D01*
X-2128894Y-202302D01*
X-2117674Y-216925D01*
X-2103052Y-228145D01*
X-2086023Y-235198D01*
X-2067750Y-237604D01*
X-1987750D01*
X-1969476Y-235198D01*
X-1952448Y-228145D01*
X-1937825Y-216925D01*
X-1926605Y-202302D01*
X-1919552Y-185274D01*
X-1917146Y-167000D01*
X-1919552Y-148727D01*
X-1926605Y-131698D01*
X-1937825Y-117076D01*
X-1952448Y-105856D01*
X-1969476Y-98802D01*
X-1987750Y-96396D01*
X-2067750D01*
X-2086023Y-98802D01*
X-2103052Y-105856D01*
X-2117674Y-117076D01*
X-2128894Y-131698D01*
X-2132500Y-140403D01*
X-2147500Y-137419D01*
Y667419D01*
X-2132500Y670402D01*
X-2128894Y661698D01*
X-2117674Y647075D01*
X-2103052Y635855D01*
X-2086023Y628802D01*
X-2067750Y626396D01*
X-1987750D01*
X-1969476Y628802D01*
X-1952448Y635855D01*
X-1937825Y647075D01*
X-1926605Y661698D01*
X-1919552Y678726D01*
X-1917146Y697000D01*
X-1919552Y715273D01*
X-1926605Y732302D01*
X-1937825Y746924D01*
X-1952448Y758144D01*
X-1969476Y765198D01*
X-1987750Y767603D01*
X-2067750D01*
X-2086023Y765198D01*
X-2103052Y758144D01*
X-2117674Y746924D01*
X-2128894Y732302D01*
X-2132500Y723597D01*
X-2147500Y726581D01*
Y1226238D01*
Y1251504D01*
X-2137642Y1301066D01*
X-2118304Y1347752D01*
X-2090230Y1389769D01*
X-2072364Y1407635D01*
Y1407635D01*
X-2050196Y1429804D01*
X-2037113Y1442927D01*
X-2006322Y1463551D01*
X-1972094Y1477758D01*
X-1935748Y1485000D01*
X-1917219Y1484999D01*
X-1917218Y1484999D01*
X1908075Y1485000D01*
X1929933Y1485002D01*
X1972810Y1476476D01*
D02*
G37*
%LPC*%
G36*
X-1554750Y767603D02*
X-1664750D01*
X-1683024Y765198D01*
X-1700052Y758144D01*
X-1714674Y746924D01*
X-1725895Y732302D01*
X-1732948Y715273D01*
X-1735354Y697000D01*
X-1732948Y678726D01*
X-1725895Y661698D01*
X-1714674Y647075D01*
X-1700052Y635855D01*
X-1683024Y628802D01*
X-1664750Y626396D01*
X-1554750D01*
X-1536476Y628802D01*
X-1519448Y635855D01*
X-1504825Y647075D01*
X-1493605Y661698D01*
X-1486552Y678726D01*
X-1484146Y697000D01*
X-1486552Y715273D01*
X-1493605Y732302D01*
X-1504825Y746924D01*
X-1519448Y758144D01*
X-1536476Y765198D01*
X-1554750Y767603D01*
D02*
G37*
G36*
X-1650301Y601500D02*
X-1669198D01*
X-1686657Y594268D01*
X-1700018Y580906D01*
X-1707250Y563448D01*
Y544551D01*
X-1700018Y527093D01*
X-1686657Y513731D01*
X-1669198Y506500D01*
X-1650301D01*
X-1632843Y513731D01*
X-1619481Y527093D01*
X-1612250Y544551D01*
Y563448D01*
X-1619481Y580906D01*
X-1632843Y594268D01*
X-1650301Y601500D01*
D02*
G37*
G36*
X429448Y475000D02*
X410552D01*
X393093Y467768D01*
X379732Y454407D01*
X372500Y436948D01*
Y418052D01*
X379732Y400594D01*
X393093Y387232D01*
X410552Y380000D01*
X429448D01*
X446906Y387232D01*
X451489Y391814D01*
X497541D01*
X506587Y376814D01*
X502701Y367433D01*
X485953Y350686D01*
X416489D01*
X411906Y355268D01*
X394448Y362500D01*
X375552D01*
X358094Y355268D01*
X344732Y341906D01*
X342704Y337013D01*
X327993Y334086D01*
X302297Y359782D01*
Y390122D01*
X302769Y390594D01*
X310000Y408052D01*
Y426948D01*
X302769Y444407D01*
X289407Y457768D01*
X271948Y465000D01*
X253052D01*
X235594Y457768D01*
X222232Y444407D01*
X215000Y426948D01*
Y408052D01*
X222232Y390594D01*
X230926Y381899D01*
Y345000D01*
X233642Y331344D01*
X241378Y319766D01*
X393878Y167266D01*
X405455Y159531D01*
X419112Y156814D01*
X860614D01*
X871409Y158962D01*
X879467Y155624D01*
X898364D01*
X915822Y162855D01*
X929184Y176217D01*
X936415Y193676D01*
Y212572D01*
X929184Y230030D01*
X915822Y243392D01*
X898364Y250624D01*
X879467D01*
X862009Y243392D01*
X848647Y230030D01*
X847883Y228186D01*
X664866D01*
X658653Y243186D01*
X697669Y282201D01*
X715054Y275000D01*
X734946D01*
X753323Y282612D01*
X767388Y296677D01*
X775000Y315054D01*
Y334946D01*
X767388Y353323D01*
X753323Y367388D01*
X742637Y371814D01*
X745621Y386814D01*
X980953D01*
X1002701Y365067D01*
X1009732Y348094D01*
X1023093Y334732D01*
X1040552Y327500D01*
X1059448D01*
X1076906Y334732D01*
X1090268Y348094D01*
X1097500Y365552D01*
Y384448D01*
X1090268Y401906D01*
X1076906Y415268D01*
X1059448Y422500D01*
X1046202D01*
X1020968Y447734D01*
X1009391Y455469D01*
X995735Y458186D01*
X627962D01*
X624545Y460469D01*
X610888Y463186D01*
X451489D01*
X446906Y467768D01*
X429448Y475000D01*
D02*
G37*
G36*
X71948Y1017500D02*
X53052D01*
X35594Y1010268D01*
X22232Y996907D01*
X15000Y979448D01*
Y960552D01*
X16618Y956645D01*
Y636505D01*
X-185500Y434387D01*
X-189407Y432769D01*
X-202768Y419407D01*
X-210000Y401948D01*
Y383052D01*
X-202768Y365594D01*
X-189407Y352232D01*
X-171948Y345000D01*
X-153052D01*
X-135594Y352232D01*
X-122232Y365594D01*
X-120613Y369500D01*
X94943Y585057D01*
X104889Y599942D01*
X108382Y617500D01*
Y956645D01*
X110000Y960552D01*
Y979448D01*
X102768Y996907D01*
X89406Y1010268D01*
X71948Y1017500D01*
D02*
G37*
G36*
X-1285552Y437500D02*
X-1304448D01*
X-1321906Y430268D01*
X-1335268Y416906D01*
X-1342500Y399448D01*
Y380552D01*
X-1340881Y376645D01*
Y60192D01*
X-1342101Y58972D01*
X-1350560Y38552D01*
Y16449D01*
X-1342101Y-3972D01*
X-1326472Y-19601D01*
X-1306051Y-28060D01*
X-1283948D01*
X-1263528Y-19601D01*
X-1247898Y-3972D01*
X-1239440Y16449D01*
Y38552D01*
X-1247898Y58972D01*
X-1249118Y60192D01*
Y376645D01*
X-1247500Y380552D01*
Y399448D01*
X-1254732Y416906D01*
X-1268093Y430268D01*
X-1285552Y437500D01*
D02*
G37*
G36*
X-1650301Y23500D02*
X-1669198D01*
X-1686657Y16268D01*
X-1700018Y2907D01*
X-1707250Y-14552D01*
Y-33448D01*
X-1700018Y-50907D01*
X-1686657Y-64269D01*
X-1669198Y-71500D01*
X-1650301D01*
X-1632843Y-64269D01*
X-1619481Y-50907D01*
X-1612250Y-33448D01*
Y-14552D01*
X-1619481Y2907D01*
X-1632843Y16268D01*
X-1650301Y23500D01*
D02*
G37*
G36*
X-1554750Y-96396D02*
X-1664750D01*
X-1683024Y-98802D01*
X-1700052Y-105856D01*
X-1714674Y-117076D01*
X-1725895Y-131698D01*
X-1732948Y-148727D01*
X-1735354Y-167000D01*
X-1732948Y-185274D01*
X-1725895Y-202302D01*
X-1714674Y-216925D01*
X-1700052Y-228145D01*
X-1683024Y-235198D01*
X-1664750Y-237604D01*
X-1554750D01*
X-1536476Y-235198D01*
X-1519448Y-228145D01*
X-1504825Y-216925D01*
X-1493605Y-202302D01*
X-1486552Y-185274D01*
X-1484146Y-167000D01*
X-1486552Y-148727D01*
X-1493605Y-131698D01*
X-1504825Y-117076D01*
X-1519448Y-105856D01*
X-1536476Y-98802D01*
X-1554750Y-96396D01*
D02*
G37*
G36*
X342999Y-365050D02*
X325002D01*
X307618Y-369708D01*
X292032Y-378706D01*
X279307Y-391432D01*
X270308Y-407018D01*
X265650Y-424401D01*
Y-442398D01*
X270308Y-459782D01*
X279307Y-475368D01*
X292032Y-488094D01*
X307618Y-497092D01*
X325002Y-501750D01*
X342999D01*
X360382Y-497092D01*
X375968Y-488094D01*
X388694Y-475368D01*
X397692Y-459782D01*
X402350Y-442398D01*
Y-424401D01*
X397692Y-407018D01*
X388694Y-391432D01*
X375968Y-378706D01*
X360382Y-369708D01*
X342999Y-365050D01*
D02*
G37*
G36*
X41948Y165000D02*
X23052D01*
X5594Y157768D01*
X-7768Y144406D01*
X-15000Y126948D01*
Y108052D01*
X-7768Y90593D01*
X5594Y77231D01*
X9500Y75613D01*
X574118Y-489005D01*
Y-543230D01*
X559119Y-549444D01*
X551906Y-542232D01*
X534448Y-535000D01*
X515552D01*
X498093Y-542232D01*
X484732Y-555594D01*
X477500Y-573052D01*
Y-591948D01*
X484732Y-609406D01*
X494098Y-618772D01*
Y-643171D01*
X496814Y-656828D01*
X504550Y-668405D01*
X582763Y-746619D01*
X576550Y-761618D01*
X-140995D01*
X-370613Y-532000D01*
X-372232Y-528093D01*
X-385594Y-514732D01*
X-403052Y-507500D01*
X-421948D01*
X-439407Y-514732D01*
X-452768Y-528093D01*
X-460000Y-545552D01*
Y-564448D01*
X-452768Y-581906D01*
X-439407Y-595268D01*
X-435500Y-596887D01*
X-399886Y-632500D01*
X-406100Y-647500D01*
X-414448D01*
X-431906Y-654731D01*
X-445268Y-668093D01*
X-452500Y-685552D01*
Y-704448D01*
X-445268Y-721906D01*
X-431906Y-735268D01*
X-415692Y-741984D01*
X-228839Y-928838D01*
X-228838Y-928838D01*
X-215607Y-937679D01*
X-200000Y-940783D01*
X996837D01*
X1013052Y-947500D01*
X1031948D01*
X1049407Y-940268D01*
X1062769Y-926906D01*
X1065855Y-919455D01*
X1083549Y-915935D01*
X1102557Y-934943D01*
X1117442Y-944889D01*
X1135000Y-948382D01*
X1151645D01*
X1155552Y-950000D01*
X1174448D01*
X1191906Y-942768D01*
X1205268Y-929407D01*
X1212500Y-911948D01*
Y-893052D01*
X1205268Y-875594D01*
X1191906Y-862232D01*
X1174448Y-855000D01*
X1155552D01*
X1153314Y-855927D01*
X1072443Y-775057D01*
X1057558Y-765111D01*
X1040000Y-761618D01*
X946387D01*
X938054Y-749147D01*
X940000Y-744448D01*
Y-725552D01*
X932769Y-708094D01*
X930556Y-705881D01*
X936770Y-690882D01*
X1195995D01*
X1276618Y-771505D01*
Y-774145D01*
X1275000Y-778052D01*
Y-796948D01*
X1282232Y-814407D01*
X1295594Y-827768D01*
X1313052Y-835000D01*
X1331948D01*
X1349406Y-827768D01*
X1362768Y-814407D01*
X1370000Y-796948D01*
Y-778052D01*
X1368382Y-774145D01*
Y-752500D01*
X1364889Y-734942D01*
X1354943Y-720057D01*
X1247443Y-612557D01*
X1232558Y-602611D01*
X1215000Y-599118D01*
X665882D01*
Y-470000D01*
X662389Y-452442D01*
X652443Y-437557D01*
X74387Y140500D01*
X72768Y144406D01*
X59407Y157768D01*
X41948Y165000D01*
D02*
G37*
G36*
X-165001Y-466650D02*
X-182998D01*
X-200382Y-471308D01*
X-215968Y-480306D01*
X-228693Y-493032D01*
X-237692Y-508618D01*
X-242350Y-526001D01*
Y-543998D01*
X-237692Y-561382D01*
X-228693Y-576968D01*
X-215968Y-589694D01*
X-200382Y-598692D01*
X-182998Y-603350D01*
X-165001D01*
X-147618Y-598692D01*
X-132032Y-589694D01*
X-119306Y-576968D01*
X-110308Y-561382D01*
X-105650Y-543998D01*
Y-526001D01*
X-110308Y-508618D01*
X-119306Y-493032D01*
X-132032Y-480306D01*
X-147618Y-471308D01*
X-165001Y-466650D01*
D02*
G37*
G36*
X342999Y-568250D02*
X325002D01*
X307618Y-572908D01*
X292032Y-581906D01*
X279307Y-594632D01*
X270308Y-610218D01*
X265650Y-627601D01*
Y-645598D01*
X270308Y-662982D01*
X279307Y-678568D01*
X292032Y-691294D01*
X307618Y-700292D01*
X325002Y-704950D01*
X342999D01*
X360382Y-700292D01*
X375968Y-691294D01*
X388694Y-678568D01*
X397692Y-662982D01*
X402350Y-645598D01*
Y-627601D01*
X397692Y-610218D01*
X388694Y-594632D01*
X375968Y-581906D01*
X360382Y-572908D01*
X342999Y-568250D01*
D02*
G37*
%LPD*%
D10*
X529783Y-643171D02*
Y-587283D01*
X525000Y-582500D02*
X529783Y-587283D01*
X266612Y345000D02*
Y413389D01*
X262500Y417500D02*
X266612Y413389D01*
X621612Y-735000D02*
X892500D01*
X529783Y-643171D02*
X621612Y-735000D01*
X884132Y198340D02*
X888916Y203124D01*
X866454Y198340D02*
X884132D01*
X860614Y192500D02*
X866454Y198340D01*
X419112Y192500D02*
X860614D01*
X577515Y255015D02*
X620015D01*
X577500Y255000D02*
X577515Y255015D01*
X719467Y319467D02*
X725000Y325000D01*
X620015Y255015D02*
X684467Y319467D01*
X719467D01*
X266612Y345000D02*
X419112Y192500D01*
X420000Y427500D02*
X610888D01*
X615888Y422500D01*
X500735Y315000D02*
X543235Y357500D01*
X550000D01*
X385000Y315000D02*
X500735D01*
X1043235Y375000D02*
X1050000D01*
X615888Y422500D02*
X995735D01*
X1043235Y375000D01*
D31*
X-200000Y-900000D02*
X1022500D01*
X-405000Y-695000D02*
X-200000Y-900000D01*
D32*
X-1295000Y27500D02*
Y390000D01*
X32500Y117500D02*
X620000Y-470000D01*
Y-645000D02*
Y-470000D01*
X1135000Y-902500D02*
X1165000D01*
X1040000Y-807500D02*
X1135000Y-902500D01*
X-160000Y-807500D02*
X1040000D01*
X-412500Y-555000D02*
X-160000Y-807500D01*
X1322500Y-787500D02*
Y-752500D01*
X1215000Y-645000D02*
X1322500Y-752500D01*
X620000Y-645000D02*
X1215000D01*
X62500Y617500D02*
Y970000D01*
X-162500Y392500D02*
X62500Y617500D01*
D41*
X-1609750Y-167000D02*
D03*
Y697000D02*
D03*
D42*
X-1659750Y554000D02*
D03*
Y-24000D02*
D03*
D43*
X-2027750Y697000D02*
D03*
Y-167000D02*
D03*
D44*
X-1900000Y1250000D02*
D03*
Y-1250000D02*
D03*
X1900000D02*
D03*
Y1250000D02*
D03*
D45*
X334000Y-636600D02*
D03*
Y-433400D02*
D03*
X-174000Y-535000D02*
D03*
D46*
X-387500Y-285000D02*
D03*
X-1295000Y390000D02*
D03*
X-1302984Y-472386D02*
D03*
X-70700Y1175700D02*
D03*
X1772500Y-35000D02*
D03*
X1197500Y-1122500D02*
D03*
X-1545000Y1127500D02*
D03*
X525000Y-582500D02*
D03*
X32500Y117500D02*
D03*
X-405000Y-970000D02*
D03*
X272500Y157500D02*
D03*
X262500Y417500D02*
D03*
X875000Y982500D02*
D03*
X1075000Y222500D02*
D03*
X1492520Y-767878D02*
D03*
X1260000Y-325000D02*
D03*
X1165000Y-902500D02*
D03*
X1022500Y-900000D02*
D03*
X-412500Y-555000D02*
D03*
X-405000Y-695000D02*
D03*
X1322500Y-787500D02*
D03*
X892500Y-735000D02*
D03*
X620000Y-645000D02*
D03*
X62500Y970000D02*
D03*
X-162500Y392500D02*
D03*
X577500Y255000D02*
D03*
X550000Y357500D02*
D03*
X420000Y427500D02*
D03*
X385000Y315000D02*
D03*
X888916Y203124D02*
D03*
X1050000Y375000D02*
D03*
D47*
X-1295000Y27500D02*
D03*
D48*
X725000Y325000D02*
D03*
D49*
X-150000Y750000D02*
D03*
%TF.MD5,8a0534c849fc902233ba98fb4652786a*%
M02*
