%TF.GenerationSoftware,Altium Limited,Altium Designer,24.4.1 (13)*%
G04 Layer_Color=65535*
%FSLAX45Y45*%
%MOMM*%
%TF.SameCoordinates,B8B7DE2E-4358-4D64-837E-663932822D10*%
%TF.FilePolarity,Positive*%
%TF.FileFunction,Legend,Top*%
%TF.Part,Single*%
G01*
G75*
%TA.AperFunction,NonConductor*%
%ADD50C,0.25000*%
%ADD51C,0.25400*%
%ADD52C,0.20000*%
%ADD53C,0.30000*%
%ADD54C,0.17500*%
%ADD55C,0.10000*%
%ADD56C,0.15000*%
D50*
X1057500Y-290000D02*
G03*
X1057500Y-290000I-12500J0D01*
G01*
D51*
X306412Y915000D02*
G03*
X306412Y915000I-11412J0D01*
G01*
X-8212Y-1028672D02*
G03*
X-8212Y-1028672I-10270J0D01*
G01*
X-2112100Y967751D02*
Y840792D01*
X-2086708Y815400D01*
X-2035925D01*
X-2010533Y840792D01*
Y967751D01*
X-1858182Y942359D02*
X-1883574Y967751D01*
X-1934357D01*
X-1959749Y942359D01*
Y916967D01*
X-1934357Y891575D01*
X-1883574D01*
X-1858182Y866183D01*
Y840792D01*
X-1883574Y815400D01*
X-1934357D01*
X-1959749Y840792D01*
X-1807398Y967751D02*
Y815400D01*
X-1731223D01*
X-1705831Y840792D01*
Y866183D01*
X-1731223Y891575D01*
X-1807398D01*
X-1731223D01*
X-1705831Y916967D01*
Y942359D01*
X-1731223Y967751D01*
X-1807398D01*
X-703033Y-1075141D02*
X-728425Y-1049749D01*
X-779208D01*
X-804600Y-1075141D01*
Y-1176708D01*
X-779208Y-1202100D01*
X-728425D01*
X-703033Y-1176708D01*
Y-1125925D01*
X-753817D01*
X-652249Y-1202100D02*
Y-1049749D01*
X-576074D01*
X-550682Y-1075141D01*
Y-1125925D01*
X-576074Y-1151316D01*
X-652249D01*
X-499899Y-1049749D02*
X-449115D01*
X-474507D01*
Y-1202100D01*
X-499899D01*
X-449115D01*
X-296764Y-1049749D02*
X-347548D01*
X-372940Y-1075141D01*
Y-1176708D01*
X-347548Y-1202100D01*
X-296764D01*
X-271373Y-1176708D01*
Y-1075141D01*
X-296764Y-1049749D01*
X-660533Y-510141D02*
X-685925Y-484749D01*
X-736708D01*
X-762100Y-510141D01*
Y-535533D01*
X-736708Y-560925D01*
X-685925D01*
X-660533Y-586317D01*
Y-611708D01*
X-685925Y-637100D01*
X-736708D01*
X-762100Y-611708D01*
X-609749Y-484749D02*
Y-637100D01*
X-558966Y-586317D01*
X-508182Y-637100D01*
Y-484749D01*
X-457399D02*
Y-637100D01*
X-381223D01*
X-355831Y-611708D01*
Y-510141D01*
X-381223Y-484749D01*
X-457399D01*
D52*
X-730000Y1095000D02*
X-420000D01*
Y1405000D01*
X-730000D02*
X-420000D01*
X-730000Y1095000D02*
Y1405000D01*
X-1890000Y690000D02*
X-1765000D01*
X-1890000Y-160000D02*
X-1765000D01*
X-2240000Y690000D02*
X-2165000D01*
X-2240000Y-160000D02*
Y690000D01*
Y-160000D02*
X-2165000D01*
X980000Y-305000D02*
Y-289700D01*
X964700Y-305000D02*
X980000D01*
X540000D02*
X555300D01*
X540000D02*
Y-289700D01*
Y119700D02*
Y135000D01*
X555300D01*
X980000Y119700D02*
Y135000D01*
X964700D02*
X980000D01*
X1600573Y-430000D02*
Y-340715D01*
X1477500D02*
X1600573D01*
X275000Y495000D02*
Y625000D01*
Y495000D02*
X325000D01*
X775000D02*
Y625000D01*
X725000Y495000D02*
X775000D01*
Y725000D02*
Y855000D01*
X725000D02*
X775000D01*
X275000Y725000D02*
Y855000D01*
X325000D01*
D53*
X-215000Y-1435000D02*
Y-1060000D01*
X-90000Y-935000D01*
X860000D01*
X985000Y-1060000D01*
Y-1435000D02*
Y-1060000D01*
X-240004Y941135D02*
Y1027775D01*
D54*
X430000Y-725000D02*
Y-345000D01*
X-150000D02*
X430000D01*
X-270000Y-465000D02*
X-150000Y-345000D01*
X-270000Y-605000D02*
Y-465000D01*
Y-605000D02*
X-150000Y-725000D01*
X430000D01*
D55*
X-1647500Y-1327510D02*
Y-1377499D01*
Y-1327510D02*
X-1626076D01*
X-1618935Y-1329890D01*
X-1616554Y-1332271D01*
X-1614174Y-1337031D01*
Y-1341792D01*
X-1616554Y-1346553D01*
X-1618935Y-1348934D01*
X-1626076Y-1351314D01*
X-1647500D01*
X-1630837D02*
X-1614174Y-1377499D01*
X-1602986Y-1358455D02*
X-1574420D01*
Y-1353695D01*
X-1576801Y-1348934D01*
X-1579181Y-1346553D01*
X-1583942Y-1344173D01*
X-1591083D01*
X-1595844Y-1346553D01*
X-1600605Y-1351314D01*
X-1602986Y-1358455D01*
Y-1363216D01*
X-1600605Y-1370358D01*
X-1595844Y-1375118D01*
X-1591083Y-1377499D01*
X-1583942D01*
X-1579181Y-1375118D01*
X-1574420Y-1370358D01*
X-1563708Y-1344173D02*
X-1549426Y-1377499D01*
X-1535143Y-1344173D02*
X-1549426Y-1377499D01*
X-1524669Y-1372738D02*
X-1527050Y-1375118D01*
X-1524669Y-1377499D01*
X-1522289Y-1375118D01*
X-1524669Y-1372738D01*
X-1433974Y-1377499D02*
X-1453018Y-1327510D01*
X-1472061Y-1377499D01*
X-1464920Y-1360836D02*
X-1441116D01*
X-1609413Y-1297501D02*
X-1628456Y-1247511D01*
X-1647500Y-1297501D01*
X-1640359Y-1280837D02*
X-1616554D01*
X-1569183Y-1247511D02*
Y-1297501D01*
Y-1271316D02*
X-1573944Y-1266555D01*
X-1578705Y-1264175D01*
X-1585846D01*
X-1590607Y-1266555D01*
X-1595368Y-1271316D01*
X-1597749Y-1278457D01*
Y-1283218D01*
X-1595368Y-1290359D01*
X-1590607Y-1295120D01*
X-1585846Y-1297501D01*
X-1578705D01*
X-1573944Y-1295120D01*
X-1569183Y-1290359D01*
X-1555853Y-1278457D02*
X-1527288D01*
Y-1273696D01*
X-1529668Y-1268935D01*
X-1532048Y-1266555D01*
X-1536809Y-1264175D01*
X-1543951D01*
X-1548712Y-1266555D01*
X-1553472Y-1271316D01*
X-1555853Y-1278457D01*
Y-1283218D01*
X-1553472Y-1290359D01*
X-1548712Y-1295120D01*
X-1543951Y-1297501D01*
X-1536809D01*
X-1532048Y-1295120D01*
X-1527288Y-1290359D01*
X-1516576Y-1278457D02*
X-1488010D01*
Y-1273696D01*
X-1490391Y-1268935D01*
X-1492771Y-1266555D01*
X-1497532Y-1264175D01*
X-1504673D01*
X-1509434Y-1266555D01*
X-1514195Y-1271316D01*
X-1516576Y-1278457D01*
Y-1283218D01*
X-1514195Y-1290359D01*
X-1509434Y-1295120D01*
X-1504673Y-1297501D01*
X-1497532D01*
X-1492771Y-1295120D01*
X-1488010Y-1290359D01*
X-1477298Y-1247511D02*
Y-1297501D01*
X-1403743Y-1247511D02*
Y-1285598D01*
X-1406123Y-1292740D01*
X-1408504Y-1295120D01*
X-1413264Y-1297501D01*
X-1418025D01*
X-1422786Y-1295120D01*
X-1425167Y-1292740D01*
X-1427547Y-1285598D01*
Y-1280837D01*
X-1362323Y-1264175D02*
Y-1297501D01*
Y-1271316D02*
X-1367084Y-1266555D01*
X-1371845Y-1264175D01*
X-1378986D01*
X-1383747Y-1266555D01*
X-1388508Y-1271316D01*
X-1390888Y-1278457D01*
Y-1283218D01*
X-1388508Y-1290359D01*
X-1383747Y-1295120D01*
X-1378986Y-1297501D01*
X-1371845D01*
X-1367084Y-1295120D01*
X-1362323Y-1290359D01*
X-1348992Y-1264175D02*
Y-1297501D01*
Y-1273696D02*
X-1341851Y-1266555D01*
X-1337090Y-1264175D01*
X-1329949D01*
X-1325188Y-1266555D01*
X-1322808Y-1273696D01*
Y-1297501D01*
Y-1273696D02*
X-1315666Y-1266555D01*
X-1310905Y-1264175D01*
X-1303764D01*
X-1299003Y-1266555D01*
X-1296623Y-1273696D01*
Y-1297501D01*
X-1252346Y-1264175D02*
Y-1297501D01*
Y-1271316D02*
X-1257107Y-1266555D01*
X-1261868Y-1264175D01*
X-1269010D01*
X-1273771Y-1266555D01*
X-1278531Y-1271316D01*
X-1280912Y-1278457D01*
Y-1283218D01*
X-1278531Y-1290359D01*
X-1273771Y-1295120D01*
X-1269010Y-1297501D01*
X-1261868D01*
X-1257107Y-1295120D01*
X-1252346Y-1290359D01*
X-1239016Y-1247511D02*
Y-1297501D01*
X-1647500Y-1163350D02*
Y-1213339D01*
Y-1163350D02*
X-1630837D01*
X-1623696Y-1165731D01*
X-1618935Y-1170492D01*
X-1616554Y-1175252D01*
X-1614174Y-1182394D01*
Y-1194296D01*
X-1616554Y-1201437D01*
X-1618935Y-1206198D01*
X-1623696Y-1210959D01*
X-1630837Y-1213339D01*
X-1647500D01*
X-1602986Y-1194296D02*
X-1574420D01*
Y-1189535D01*
X-1576801Y-1184774D01*
X-1579181Y-1182394D01*
X-1583942Y-1180013D01*
X-1591083D01*
X-1595844Y-1182394D01*
X-1600605Y-1187155D01*
X-1602986Y-1194296D01*
Y-1199057D01*
X-1600605Y-1206198D01*
X-1595844Y-1210959D01*
X-1591083Y-1213339D01*
X-1583942D01*
X-1579181Y-1210959D01*
X-1574420Y-1206198D01*
X-1537523Y-1187155D02*
X-1539904Y-1182394D01*
X-1547045Y-1180013D01*
X-1554187D01*
X-1561328Y-1182394D01*
X-1563708Y-1187155D01*
X-1561328Y-1191916D01*
X-1556567Y-1194296D01*
X-1544665Y-1196676D01*
X-1539904Y-1199057D01*
X-1537523Y-1203818D01*
Y-1206198D01*
X-1539904Y-1210959D01*
X-1547045Y-1213339D01*
X-1554187D01*
X-1561328Y-1210959D01*
X-1563708Y-1206198D01*
X-1522289Y-1163350D02*
X-1519908Y-1165731D01*
X-1517528Y-1163350D01*
X-1519908Y-1160970D01*
X-1522289Y-1163350D01*
X-1519908Y-1180013D02*
Y-1213339D01*
X-1480155Y-1180013D02*
Y-1218100D01*
X-1482535Y-1225242D01*
X-1484916Y-1227622D01*
X-1489677Y-1230003D01*
X-1496818D01*
X-1501579Y-1227622D01*
X-1480155Y-1187155D02*
X-1484916Y-1182394D01*
X-1489677Y-1180013D01*
X-1496818D01*
X-1501579Y-1182394D01*
X-1506340Y-1187155D01*
X-1508720Y-1194296D01*
Y-1199057D01*
X-1506340Y-1206198D01*
X-1501579Y-1210959D01*
X-1496818Y-1213339D01*
X-1489677D01*
X-1484916Y-1210959D01*
X-1480155Y-1206198D01*
X-1466824Y-1180013D02*
Y-1213339D01*
Y-1189535D02*
X-1459683Y-1182394D01*
X-1454922Y-1180013D01*
X-1447781D01*
X-1443020Y-1182394D01*
X-1440639Y-1189535D01*
Y-1213339D01*
X-1427547Y-1194296D02*
X-1398982D01*
Y-1189535D01*
X-1401362Y-1184774D01*
X-1403743Y-1182394D01*
X-1408504Y-1180013D01*
X-1415645D01*
X-1420406Y-1182394D01*
X-1425167Y-1187155D01*
X-1427547Y-1194296D01*
Y-1199057D01*
X-1425167Y-1206198D01*
X-1420406Y-1210959D01*
X-1415645Y-1213339D01*
X-1408504D01*
X-1403743Y-1210959D01*
X-1398982Y-1206198D01*
X-1359704Y-1163350D02*
Y-1213339D01*
Y-1187155D02*
X-1364465Y-1182394D01*
X-1369226Y-1180013D01*
X-1376368D01*
X-1381129Y-1182394D01*
X-1385889Y-1187155D01*
X-1388270Y-1194296D01*
Y-1199057D01*
X-1385889Y-1206198D01*
X-1381129Y-1210959D01*
X-1376368Y-1213339D01*
X-1369226D01*
X-1364465Y-1210959D01*
X-1359704Y-1206198D01*
X-1307097Y-1163350D02*
Y-1213339D01*
Y-1187155D02*
X-1302336Y-1182394D01*
X-1297575Y-1180013D01*
X-1290434D01*
X-1285673Y-1182394D01*
X-1280912Y-1187155D01*
X-1278531Y-1194296D01*
Y-1199057D01*
X-1280912Y-1206198D01*
X-1285673Y-1210959D01*
X-1290434Y-1213339D01*
X-1297575D01*
X-1302336Y-1210959D01*
X-1307097Y-1206198D01*
X-1265439Y-1180013D02*
X-1251156Y-1213339D01*
X-1236874Y-1180013D02*
X-1251156Y-1213339D01*
X-1255917Y-1222861D01*
X-1260678Y-1227622D01*
X-1265439Y-1230003D01*
X-1267819D01*
X-1226162Y-1180013D02*
X-1228542Y-1182394D01*
X-1226162Y-1184774D01*
X-1223781Y-1182394D01*
X-1226162Y-1180013D01*
Y-1208578D02*
X-1228542Y-1210959D01*
X-1226162Y-1213339D01*
X-1223781Y-1210959D01*
X-1226162Y-1208578D01*
D56*
X-989158Y780861D02*
X-1002487Y767532D01*
Y740874D01*
X-989158Y727545D01*
X-935842D01*
X-922513Y740874D01*
Y767532D01*
X-935842Y780861D01*
X-922513Y807519D02*
Y834177D01*
Y820848D01*
X-1002487D01*
X-989158Y807519D01*
Y874165D02*
X-1002487Y887494D01*
Y914152D01*
X-989158Y927481D01*
X-935842D01*
X-922513Y914152D01*
Y887494D01*
X-935842Y874165D01*
X-989158D01*
Y954139D02*
X-1002487Y967468D01*
Y994126D01*
X-989158Y1007455D01*
X-935842D01*
X-922513Y994126D01*
Y967468D01*
X-935842Y954139D01*
X-989158D01*
X-867487Y1120045D02*
X-787513D01*
Y1173361D01*
Y1200019D02*
Y1226678D01*
Y1213349D01*
X-867487D01*
X-854158Y1200019D01*
Y1266665D02*
X-867487Y1279994D01*
Y1306652D01*
X-854158Y1319981D01*
X-800842D01*
X-787513Y1306652D01*
Y1279994D01*
X-800842Y1266665D01*
X-854158D01*
Y1346639D02*
X-867487Y1359968D01*
Y1386626D01*
X-854158Y1399955D01*
X-800842D01*
X-787513Y1386626D01*
Y1359968D01*
X-800842Y1346639D01*
X-854158D01*
X-2079139Y-265013D02*
X-2105797D01*
X-2092467D01*
Y-331658D01*
X-2105797Y-344987D01*
X-2119126D01*
X-2132455Y-331658D01*
X-2052481Y-344987D02*
X-2025822D01*
X-2039151D01*
Y-265013D01*
X-2052481Y-278342D01*
X-1985835D02*
X-1972506Y-265013D01*
X-1945848D01*
X-1932519Y-278342D01*
Y-331658D01*
X-1945848Y-344987D01*
X-1972506D01*
X-1985835Y-331658D01*
Y-278342D01*
X-1905861D02*
X-1892532Y-265013D01*
X-1865874D01*
X-1852545Y-278342D01*
Y-331658D01*
X-1865874Y-344987D01*
X-1892532D01*
X-1905861Y-331658D01*
Y-278342D01*
X513381Y-572487D02*
Y-492513D01*
X553368D01*
X566697Y-505842D01*
Y-532500D01*
X553368Y-545829D01*
X513381D01*
X540039D02*
X566697Y-572487D01*
X646671D02*
X593355D01*
X646671Y-519171D01*
Y-505842D01*
X633342Y-492513D01*
X606684D01*
X593355Y-505842D01*
X673329D02*
X686658Y-492513D01*
X713316D01*
X726645Y-505842D01*
Y-559158D01*
X713316Y-572487D01*
X686658D01*
X673329Y-559158D01*
Y-505842D01*
X753303D02*
X766632Y-492513D01*
X793291D01*
X806619Y-505842D01*
Y-559158D01*
X793291Y-572487D01*
X766632D01*
X753303Y-559158D01*
Y-505842D01*
X-1749955Y-504987D02*
Y-425013D01*
X-1709968D01*
X-1696639Y-438342D01*
Y-465000D01*
X-1709968Y-478329D01*
X-1749955D01*
X-1723297D02*
X-1696639Y-504987D01*
X-1669981D02*
X-1643323D01*
X-1656651D01*
Y-425013D01*
X-1669981Y-438342D01*
X-1603335D02*
X-1590006Y-425013D01*
X-1563348D01*
X-1550019Y-438342D01*
Y-491658D01*
X-1563348Y-504987D01*
X-1590006D01*
X-1603335Y-491658D01*
Y-438342D01*
X-1470045Y-504987D02*
X-1523361D01*
X-1470045Y-451671D01*
Y-438342D01*
X-1483374Y-425013D01*
X-1510032D01*
X-1523361Y-438342D01*
X1169576Y430085D02*
X1156247Y443414D01*
X1129589D01*
X1116260Y430085D01*
Y376769D01*
X1129589Y363440D01*
X1156247D01*
X1169576Y376769D01*
X1249550Y363440D02*
X1196234D01*
X1249550Y416756D01*
Y430085D01*
X1236221Y443414D01*
X1209563D01*
X1196234Y430085D01*
X1276208D02*
X1289537Y443414D01*
X1316195D01*
X1329524Y430085D01*
Y376769D01*
X1316195Y363440D01*
X1289537D01*
X1276208Y376769D01*
Y430085D01*
X1356182Y363440D02*
X1382841D01*
X1369512D01*
Y443414D01*
X1356182Y430085D01*
X542220Y293554D02*
Y226909D01*
X555549Y213580D01*
X582207D01*
X595536Y226909D01*
Y293554D01*
X675510Y213580D02*
X622194D01*
X675510Y266896D01*
Y280225D01*
X662181Y293554D01*
X635523D01*
X622194Y280225D01*
X702168D02*
X715497Y293554D01*
X742155D01*
X755484Y280225D01*
Y226909D01*
X742155Y213580D01*
X715497D01*
X702168Y226909D01*
Y280225D01*
X782142D02*
X795472Y293554D01*
X822130D01*
X835459Y280225D01*
Y226909D01*
X822130Y213580D01*
X795472D01*
X782142Y226909D01*
Y280225D01*
X945842Y-650803D02*
X932513Y-664132D01*
Y-690790D01*
X945842Y-704119D01*
X999158D01*
X1012487Y-690790D01*
Y-664132D01*
X999158Y-650803D01*
X1012487Y-570829D02*
Y-624145D01*
X959171Y-570829D01*
X945842D01*
X932513Y-584158D01*
Y-610816D01*
X945842Y-624145D01*
Y-544171D02*
X932513Y-530842D01*
Y-504184D01*
X945842Y-490855D01*
X999158D01*
X1012487Y-504184D01*
Y-530842D01*
X999158Y-544171D01*
X945842D01*
X932513Y-410881D02*
Y-464197D01*
X972500D01*
X959171Y-437539D01*
Y-424209D01*
X972500Y-410881D01*
X999158D01*
X1012487Y-424209D01*
Y-450868D01*
X999158Y-464197D01*
X1802558Y-653407D02*
X1789229Y-666736D01*
Y-693394D01*
X1802558Y-706723D01*
X1855874D01*
X1869204Y-693394D01*
Y-666736D01*
X1855874Y-653407D01*
X1869204Y-573433D02*
Y-626749D01*
X1815887Y-573433D01*
X1802558D01*
X1789229Y-586762D01*
Y-613420D01*
X1802558Y-626749D01*
Y-546775D02*
X1789229Y-533446D01*
Y-506788D01*
X1802558Y-493459D01*
X1855874D01*
X1869204Y-506788D01*
Y-533446D01*
X1855874Y-546775D01*
X1802558D01*
X1869204Y-426813D02*
X1789229D01*
X1829216Y-466801D01*
Y-413485D01*
X1213381Y-257513D02*
X1266697Y-337487D01*
Y-257513D02*
X1213381Y-337487D01*
X1346671D02*
X1293355D01*
X1346671Y-284171D01*
Y-270842D01*
X1333342Y-257513D01*
X1306684D01*
X1293355Y-270842D01*
X1373329D02*
X1386658Y-257513D01*
X1413316D01*
X1426645Y-270842D01*
Y-324158D01*
X1413316Y-337487D01*
X1386658D01*
X1373329Y-324158D01*
Y-270842D01*
X1453303D02*
X1466633Y-257513D01*
X1493291D01*
X1506620Y-270842D01*
Y-324158D01*
X1493291Y-337487D01*
X1466633D01*
X1453303Y-324158D01*
Y-270842D01*
X-114119Y-852487D02*
Y-772513D01*
X-74132D01*
X-60803Y-785842D01*
Y-812500D01*
X-74132Y-825829D01*
X-114119D01*
X-87461D02*
X-60803Y-852487D01*
X19171D02*
X-34145D01*
X19171Y-799171D01*
Y-785842D01*
X5842Y-772513D01*
X-20816D01*
X-34145Y-785842D01*
X45829D02*
X59158Y-772513D01*
X85816D01*
X99145Y-785842D01*
Y-839158D01*
X85816Y-852487D01*
X59158D01*
X45829Y-839158D01*
Y-785842D01*
X179120Y-852487D02*
X125803D01*
X179120Y-799171D01*
Y-785842D01*
X165791Y-772513D01*
X139133D01*
X125803Y-785842D01*
X1064210Y-1057487D02*
Y-977513D01*
X1104197D01*
X1117526Y-990842D01*
Y-1017500D01*
X1104197Y-1030829D01*
X1064210D01*
X1090868D02*
X1117526Y-1057487D01*
X1197500D02*
X1144184D01*
X1197500Y-1004171D01*
Y-990842D01*
X1184171Y-977513D01*
X1157513D01*
X1144184Y-990842D01*
X1224158D02*
X1237487Y-977513D01*
X1264145D01*
X1277474Y-990842D01*
Y-1044158D01*
X1264145Y-1057487D01*
X1237487D01*
X1224158Y-1044158D01*
Y-990842D01*
X1304132Y-1057487D02*
X1330790D01*
X1317461D01*
Y-977513D01*
X1304132Y-990842D01*
X1679197Y-125842D02*
X1665868Y-112513D01*
X1639210D01*
X1625881Y-125842D01*
Y-179158D01*
X1639210Y-192487D01*
X1665868D01*
X1679197Y-179158D01*
X1759171Y-192487D02*
X1705855D01*
X1759171Y-139171D01*
Y-125842D01*
X1745842Y-112513D01*
X1719184D01*
X1705855Y-125842D01*
X1785829D02*
X1799158Y-112513D01*
X1825816D01*
X1839145Y-125842D01*
Y-179158D01*
X1825816Y-192487D01*
X1799158D01*
X1785829Y-179158D01*
Y-125842D01*
X1865803D02*
X1879132Y-112513D01*
X1905790D01*
X1919119Y-125842D01*
Y-179158D01*
X1905790Y-192487D01*
X1879132D01*
X1865803Y-179158D01*
Y-125842D01*
X208342Y-78303D02*
X195013Y-91632D01*
Y-118290D01*
X208342Y-131619D01*
X261658D01*
X274987Y-118290D01*
Y-91632D01*
X261658Y-78303D01*
X274987Y1671D02*
Y-51645D01*
X221671Y1671D01*
X208342D01*
X195013Y-11658D01*
Y-38316D01*
X208342Y-51645D01*
Y28329D02*
X195013Y41658D01*
Y68316D01*
X208342Y81645D01*
X261658D01*
X274987Y68316D01*
Y41658D01*
X261658Y28329D01*
X208342D01*
Y108303D02*
X195013Y121632D01*
Y148291D01*
X208342Y161619D01*
X221671D01*
X235000Y148291D01*
Y134961D01*
Y148291D01*
X248329Y161619D01*
X261658D01*
X274987Y148291D01*
Y121632D01*
X261658Y108303D01*
X379197Y1121658D02*
X365868Y1134987D01*
X339210D01*
X325881Y1121658D01*
Y1068342D01*
X339210Y1055013D01*
X365868D01*
X379197Y1068342D01*
X405855Y1121658D02*
X419184Y1134987D01*
X445842D01*
X459171Y1121658D01*
Y1108329D01*
X445842Y1095000D01*
X432513D01*
X445842D01*
X459171Y1081671D01*
Y1068342D01*
X445842Y1055013D01*
X419184D01*
X405855Y1068342D01*
X485829Y1121658D02*
X499158Y1134987D01*
X525816D01*
X539145Y1121658D01*
Y1068342D01*
X525816Y1055013D01*
X499158D01*
X485829Y1068342D01*
Y1121658D01*
X565803D02*
X579132Y1134987D01*
X605791D01*
X619119Y1121658D01*
Y1068342D01*
X605791Y1055013D01*
X579132D01*
X565803Y1068342D01*
Y1121658D01*
X973342Y730026D02*
X960013Y716697D01*
Y690039D01*
X973342Y676710D01*
X1026658D01*
X1039987Y690039D01*
Y716697D01*
X1026658Y730026D01*
X973342Y756684D02*
X960013Y770013D01*
Y796671D01*
X973342Y810000D01*
X986671D01*
X1000000Y796671D01*
Y783342D01*
Y796671D01*
X1013329Y810000D01*
X1026658D01*
X1039987Y796671D01*
Y770013D01*
X1026658Y756684D01*
X973342Y836658D02*
X960013Y849987D01*
Y876645D01*
X973342Y889974D01*
X1026658D01*
X1039987Y876645D01*
Y849987D01*
X1026658Y836658D01*
X973342D01*
X1039987Y916632D02*
Y943290D01*
Y929961D01*
X960013D01*
X973342Y916632D01*
X137513Y528381D02*
X204158D01*
X217487Y541710D01*
Y568368D01*
X204158Y581697D01*
X137513D01*
X150842Y608355D02*
X137513Y621684D01*
Y648342D01*
X150842Y661671D01*
X164171D01*
X177500Y648342D01*
Y635013D01*
Y648342D01*
X190829Y661671D01*
X204158D01*
X217487Y648342D01*
Y621684D01*
X204158Y608355D01*
X150842Y688329D02*
X137513Y701658D01*
Y728317D01*
X150842Y741645D01*
X204158D01*
X217487Y728317D01*
Y701658D01*
X204158Y688329D01*
X150842D01*
Y768304D02*
X137513Y781633D01*
Y808291D01*
X150842Y821620D01*
X204158D01*
X217487Y808291D01*
Y781633D01*
X204158Y768304D01*
X150842D01*
X-570803Y-1355013D02*
X-597461D01*
X-584132D01*
Y-1421658D01*
X-597461Y-1434987D01*
X-610790D01*
X-624119Y-1421658D01*
X-544145Y-1368342D02*
X-530816Y-1355013D01*
X-504158D01*
X-490829Y-1368342D01*
Y-1381671D01*
X-504158Y-1395000D01*
X-517487D01*
X-504158D01*
X-490829Y-1408329D01*
Y-1421658D01*
X-504158Y-1434987D01*
X-530816D01*
X-544145Y-1421658D01*
X-464171Y-1368342D02*
X-450842Y-1355013D01*
X-424184D01*
X-410855Y-1368342D01*
Y-1421658D01*
X-424184Y-1434987D01*
X-450842D01*
X-464171Y-1421658D01*
Y-1368342D01*
X-384197D02*
X-370867Y-1355013D01*
X-344209D01*
X-330880Y-1368342D01*
Y-1421658D01*
X-344209Y-1434987D01*
X-370867D01*
X-384197Y-1421658D01*
Y-1368342D01*
X1241697Y616658D02*
X1228368Y629987D01*
X1201710D01*
X1188381Y616658D01*
Y563342D01*
X1201710Y550013D01*
X1228368D01*
X1241697Y563342D01*
X1321671Y550013D02*
X1268355D01*
X1321671Y603329D01*
Y616658D01*
X1308342Y629987D01*
X1281684D01*
X1268355Y616658D01*
X1348329D02*
X1361658Y629987D01*
X1388316D01*
X1401645Y616658D01*
Y563342D01*
X1388316Y550013D01*
X1361658D01*
X1348329Y563342D01*
Y616658D01*
X1481619Y550013D02*
X1428303D01*
X1481619Y603329D01*
Y616658D01*
X1468290Y629987D01*
X1441632D01*
X1428303Y616658D01*
X1545404Y31710D02*
Y-21606D01*
X1585391D01*
Y5052D01*
Y-21606D01*
X1625379D01*
X1545404Y58368D02*
X1625379D01*
Y98355D01*
X1612049Y111684D01*
X1598720D01*
X1585391Y98355D01*
Y58368D01*
Y98355D01*
X1572062Y111684D01*
X1558733D01*
X1545404Y98355D01*
Y58368D01*
X1625379Y191658D02*
Y138342D01*
X1572062Y191658D01*
X1558733D01*
X1545404Y178329D01*
Y151671D01*
X1558733Y138342D01*
Y218316D02*
X1545404Y231645D01*
Y258304D01*
X1558733Y271632D01*
X1612049D01*
X1625379Y258304D01*
Y231645D01*
X1612049Y218316D01*
X1558733D01*
Y298290D02*
X1545404Y311620D01*
Y338278D01*
X1558733Y351607D01*
X1612049D01*
X1625379Y338278D01*
Y311620D01*
X1612049Y298290D01*
X1558733D01*
X-804955Y200013D02*
Y279987D01*
X-764967D01*
X-751639Y266658D01*
Y240000D01*
X-764967Y226671D01*
X-804955D01*
X-778297D02*
X-751639Y200013D01*
X-724981D02*
X-698322D01*
X-711651D01*
Y279987D01*
X-724981Y266658D01*
X-658335D02*
X-645006Y279987D01*
X-618348D01*
X-605019Y266658D01*
Y213342D01*
X-618348Y200013D01*
X-645006D01*
X-658335Y213342D01*
Y266658D01*
X-578361D02*
X-565032Y279987D01*
X-538374D01*
X-525045Y266658D01*
Y213342D01*
X-538374Y200013D01*
X-565032D01*
X-578361Y213342D01*
Y266658D01*
X-791626Y525013D02*
Y604987D01*
X-751639D01*
X-738310Y591658D01*
Y565000D01*
X-751639Y551671D01*
X-791626D01*
X-764968D02*
X-738310Y525013D01*
X-711652D02*
X-684994D01*
X-698322D01*
Y604987D01*
X-711652Y591658D01*
X-645006D02*
X-631677Y604987D01*
X-605019D01*
X-591690Y591658D01*
Y538342D01*
X-605019Y525013D01*
X-631677D01*
X-645006Y538342D01*
Y591658D01*
X-565032Y525013D02*
X-538374D01*
X-551703D01*
Y604987D01*
X-565032Y591658D01*
X-751638Y416658D02*
X-764967Y429987D01*
X-791625D01*
X-804954Y416658D01*
Y363342D01*
X-791625Y350013D01*
X-764967D01*
X-751638Y363342D01*
X-724980Y350013D02*
X-698322D01*
X-711651D01*
Y429987D01*
X-724980Y416658D01*
X-658335D02*
X-645006Y429987D01*
X-618348D01*
X-605019Y416658D01*
Y363342D01*
X-618348Y350013D01*
X-645006D01*
X-658335Y363342D01*
Y416658D01*
X-525045Y350013D02*
X-578361D01*
X-525045Y403329D01*
Y416658D01*
X-538374Y429987D01*
X-565032D01*
X-578361Y416658D01*
X-99158Y1201690D02*
X-112487Y1188361D01*
Y1161703D01*
X-99158Y1148374D01*
X-45842D01*
X-32513Y1161703D01*
Y1188361D01*
X-45842Y1201690D01*
X-32513Y1228348D02*
Y1255006D01*
Y1241677D01*
X-112487D01*
X-99158Y1228348D01*
Y1294994D02*
X-112487Y1308323D01*
Y1334981D01*
X-99158Y1348310D01*
X-45842D01*
X-32513Y1334981D01*
Y1308323D01*
X-45842Y1294994D01*
X-99158D01*
X-32513Y1374968D02*
Y1401626D01*
Y1388297D01*
X-112487D01*
X-99158Y1374968D01*
X-649987Y720437D02*
X-583342D01*
X-570013Y733766D01*
Y760424D01*
X-583342Y773753D01*
X-649987D01*
X-570013Y800411D02*
Y827069D01*
Y813741D01*
X-649987D01*
X-636658Y800411D01*
Y867057D02*
X-649987Y880386D01*
Y907044D01*
X-636658Y920373D01*
X-583342D01*
X-570013Y907044D01*
Y880386D01*
X-583342Y867057D01*
X-636658D01*
Y947031D02*
X-649987Y960360D01*
Y987018D01*
X-636658Y1000347D01*
X-583342D01*
X-570013Y987018D01*
Y960360D01*
X-583342Y947031D01*
X-636658D01*
X-1502513Y955045D02*
X-1582487D01*
Y995033D01*
X-1569158Y1008361D01*
X-1542500D01*
X-1529171Y995033D01*
Y955045D01*
Y981703D02*
X-1502513Y1008361D01*
Y1035020D02*
Y1061678D01*
Y1048349D01*
X-1582487D01*
X-1569158Y1035020D01*
Y1101665D02*
X-1582487Y1114994D01*
Y1141652D01*
X-1569158Y1154981D01*
X-1515842D01*
X-1502513Y1141652D01*
Y1114994D01*
X-1515842Y1101665D01*
X-1569158D01*
Y1181639D02*
X-1582487Y1194968D01*
Y1221626D01*
X-1569158Y1234955D01*
X-1555829D01*
X-1542500Y1221626D01*
Y1208297D01*
Y1221626D01*
X-1529171Y1234955D01*
X-1515842D01*
X-1502513Y1221626D01*
Y1194968D01*
X-1515842Y1181639D01*
X-1226658Y783361D02*
X-1239987Y770032D01*
Y743374D01*
X-1226658Y730045D01*
X-1173342D01*
X-1160013Y743374D01*
Y770032D01*
X-1173342Y783361D01*
X-1160013Y810019D02*
Y836678D01*
Y823349D01*
X-1239987D01*
X-1226658Y810019D01*
Y876665D02*
X-1239987Y889994D01*
Y916652D01*
X-1226658Y929981D01*
X-1173342D01*
X-1160013Y916652D01*
Y889994D01*
X-1173342Y876665D01*
X-1226658D01*
Y956639D02*
X-1239987Y969968D01*
Y996626D01*
X-1226658Y1009955D01*
X-1213329D01*
X-1200000Y996626D01*
Y983297D01*
Y996626D01*
X-1186671Y1009955D01*
X-1173342D01*
X-1160013Y996626D01*
Y969968D01*
X-1173342Y956639D01*
X-1189126Y472487D02*
X-1242442D01*
Y432500D01*
X-1215784D01*
X-1242442D01*
Y392513D01*
X-1162468Y472487D02*
Y392513D01*
X-1122481D01*
X-1109152Y405842D01*
Y419171D01*
X-1122481Y432500D01*
X-1162468D01*
X-1122481D01*
X-1109152Y445829D01*
Y459158D01*
X-1122481Y472487D01*
X-1162468D01*
X-1082494Y392513D02*
X-1055836D01*
X-1069164D01*
Y472487D01*
X-1082494Y459158D01*
X-1015848D02*
X-1002519Y472487D01*
X-975861D01*
X-962532Y459158D01*
Y405842D01*
X-975861Y392513D01*
X-1002519D01*
X-1015848Y405842D01*
Y459158D01*
X-935874D02*
X-922545Y472487D01*
X-895887D01*
X-882558Y459158D01*
Y405842D01*
X-895887Y392513D01*
X-922545D01*
X-935874Y405842D01*
Y459158D01*
X-1439268Y777395D02*
X-1452597Y764066D01*
Y737408D01*
X-1439268Y724079D01*
X-1385952D01*
X-1372623Y737408D01*
Y764066D01*
X-1385952Y777395D01*
X-1372623Y804053D02*
Y830711D01*
Y817382D01*
X-1452597D01*
X-1439268Y804053D01*
Y870698D02*
X-1452597Y884027D01*
Y910685D01*
X-1439268Y924014D01*
X-1385952D01*
X-1372623Y910685D01*
Y884027D01*
X-1385952Y870698D01*
X-1439268D01*
X-1372623Y990659D02*
X-1452597D01*
X-1412610Y950672D01*
Y1003988D01*
X-209644Y-191586D02*
X-236302D01*
X-222973D01*
Y-258231D01*
X-236302Y-271560D01*
X-249631D01*
X-262960Y-258231D01*
X-129670Y-271560D02*
X-182986D01*
X-129670Y-218244D01*
Y-204915D01*
X-142999Y-191586D01*
X-169657D01*
X-182986Y-204915D01*
X-103012D02*
X-89683Y-191586D01*
X-63025D01*
X-49696Y-204915D01*
Y-258231D01*
X-63025Y-271560D01*
X-89683D01*
X-103012Y-258231D01*
Y-204915D01*
X-23038D02*
X-9708Y-191586D01*
X16950D01*
X30279Y-204915D01*
Y-258231D01*
X16950Y-271560D01*
X-9708D01*
X-23038Y-258231D01*
Y-204915D01*
%TF.MD5,c8aa53e2febf9fbe736d2182816940f9*%
M02*
