%TF.GenerationSoftware,Altium Limited,Altium Designer,24.4.1 (13)*%
G04 Layer_Color=8388736*
%FSLAX45Y45*%
%MOMM*%
%TF.SameCoordinates,B8B7DE2E-4358-4D64-837E-663932822D10*%
%TF.FilePolarity,Negative*%
%TF.FileFunction,Soldermask,Top*%
%TF.Part,Single*%
G01*
G75*
%TA.AperFunction,SMDPad,CuDef*%
%ADD11R,2.00000X0.70000*%
G04:AMPARAMS|DCode=57|XSize=1.6032mm|YSize=1.9032mm|CornerRadius=0.2766mm|HoleSize=0mm|Usage=FLASHONLY|Rotation=270.000|XOffset=0mm|YOffset=0mm|HoleType=Round|Shape=RoundedRectangle|*
%AMROUNDEDRECTD57*
21,1,1.60320,1.35000,0,0,270.0*
21,1,1.05000,1.90320,0,0,270.0*
1,1,0.55320,-0.67500,-0.52500*
1,1,0.55320,-0.67500,0.52500*
1,1,0.55320,0.67500,0.52500*
1,1,0.55320,0.67500,-0.52500*
%
%ADD57ROUNDEDRECTD57*%
%TA.AperFunction,TestPad*%
G04:AMPARAMS|DCode=58|XSize=0.4mm|YSize=1.25mm|CornerRadius=0.0875mm|HoleSize=0mm|Usage=FLASHONLY|Rotation=270.000|XOffset=0mm|YOffset=0mm|HoleType=Round|Shape=RoundedRectangle|*
%AMROUNDEDRECTD58*
21,1,0.40000,1.07500,0,0,270.0*
21,1,0.22500,1.25000,0,0,270.0*
1,1,0.17500,-0.53750,-0.11250*
1,1,0.17500,-0.53750,0.11250*
1,1,0.17500,0.53750,0.11250*
1,1,0.17500,0.53750,-0.11250*
%
%ADD58ROUNDEDRECTD58*%
G04:AMPARAMS|DCode=59|XSize=0.7mm|YSize=1.25mm|CornerRadius=0.125mm|HoleSize=0mm|Usage=FLASHONLY|Rotation=270.000|XOffset=0mm|YOffset=0mm|HoleType=Round|Shape=RoundedRectangle|*
%AMROUNDEDRECTD59*
21,1,0.70000,1.00000,0,0,270.0*
21,1,0.45000,1.25000,0,0,270.0*
1,1,0.25000,-0.50000,-0.22500*
1,1,0.25000,-0.50000,0.22500*
1,1,0.25000,0.50000,0.22500*
1,1,0.25000,0.50000,-0.22500*
%
%ADD59ROUNDEDRECTD59*%
%TA.AperFunction,SMDPad,CuDef*%
G04:AMPARAMS|DCode=60|XSize=1.0032mm|YSize=1.2032mm|CornerRadius=0.2016mm|HoleSize=0mm|Usage=FLASHONLY|Rotation=180.000|XOffset=0mm|YOffset=0mm|HoleType=Round|Shape=RoundedRectangle|*
%AMROUNDEDRECTD60*
21,1,1.00320,0.80000,0,0,180.0*
21,1,0.60000,1.20320,0,0,180.0*
1,1,0.40320,-0.30000,0.40000*
1,1,0.40320,0.30000,0.40000*
1,1,0.40320,0.30000,-0.40000*
1,1,0.40320,-0.30000,-0.40000*
%
%ADD60ROUNDEDRECTD60*%
%ADD61R,1.15320X1.15320*%
%ADD62R,0.50320X0.45320*%
%ADD63R,0.45320X0.50320*%
%ADD64R,0.75320X0.50320*%
%ADD65R,0.50320X0.75320*%
G04:AMPARAMS|DCode=66|XSize=1.5032mm|YSize=1.3032mm|CornerRadius=0.1566mm|HoleSize=0mm|Usage=FLASHONLY|Rotation=180.000|XOffset=0mm|YOffset=0mm|HoleType=Round|Shape=RoundedRectangle|*
%AMROUNDEDRECTD66*
21,1,1.50320,0.99000,0,0,180.0*
21,1,1.19000,1.30320,0,0,180.0*
1,1,0.31320,-0.59500,0.49500*
1,1,0.31320,0.59500,0.49500*
1,1,0.31320,0.59500,-0.49500*
1,1,0.31320,-0.59500,-0.49500*
%
%ADD66ROUNDEDRECTD66*%
%ADD67R,1.15320X1.15320*%
%ADD68R,0.95320X0.50320*%
%ADD69R,0.50320X0.95320*%
%TA.AperFunction,ConnectorPad*%
%ADD70R,0.85320X1.90320*%
%ADD71R,1.20320X3.10320*%
%TA.AperFunction,SMDPad,CuDef*%
%ADD72R,1.77320X1.53320*%
G04:AMPARAMS|DCode=73|XSize=0.8032mm|YSize=1.4032mm|CornerRadius=0.1766mm|HoleSize=0mm|Usage=FLASHONLY|Rotation=180.000|XOffset=0mm|YOffset=0mm|HoleType=Round|Shape=RoundedRectangle|*
%AMROUNDEDRECTD73*
21,1,0.80320,1.05000,0,0,180.0*
21,1,0.45000,1.40320,0,0,180.0*
1,1,0.35320,-0.22500,0.52500*
1,1,0.35320,0.22500,0.52500*
1,1,0.35320,0.22500,-0.52500*
1,1,0.35320,-0.22500,-0.52500*
%
%ADD73ROUNDEDRECTD73*%
%ADD74R,1.53320X1.77320*%
%TA.AperFunction,BGAPad,CuDef*%
%ADD75C,1.06620*%
%TA.AperFunction,TestPad*%
%ADD76O,2.30320X1.20320*%
%ADD77C,0.75000*%
%ADD78O,2.00320X1.20320*%
%TA.AperFunction,ViaPad*%
%ADD79C,4.20320*%
%TA.AperFunction,ComponentPad*%
%ADD80C,1.27020*%
%TA.AperFunction,ViaPad*%
%ADD81C,0.75320*%
%ADD82C,0.91440*%
%ADD83C,0.80320*%
%ADD84C,0.90320*%
G36*
X596334Y-209866D02*
X597645Y-210127D01*
X598911Y-210556D01*
X600111Y-211148D01*
X601222Y-211891D01*
X602228Y-212772D01*
X603109Y-213778D01*
X603852Y-214889D01*
X604444Y-216088D01*
X604873Y-217354D01*
X605134Y-218666D01*
X605222Y-220000D01*
Y-235500D01*
X605134Y-236834D01*
X604873Y-238146D01*
X604553Y-239091D01*
X604444Y-239412D01*
X603852Y-240611D01*
X603109Y-241723D01*
X602228Y-242728D01*
X587727Y-257228D01*
X586722Y-258110D01*
X585610Y-258852D01*
X584411Y-259444D01*
X583145Y-259873D01*
X581834Y-260134D01*
X580500Y-260222D01*
X545000D01*
X543665Y-260134D01*
X542354Y-259873D01*
X541088Y-259444D01*
X539889Y-258852D01*
X538777Y-258109D01*
X537772Y-257228D01*
X536890Y-256223D01*
X536148Y-255111D01*
X535556Y-253912D01*
X535126Y-252646D01*
X534865Y-251334D01*
X534778Y-250000D01*
Y-220000D01*
X534865Y-218666D01*
X535126Y-217354D01*
X535556Y-216088D01*
X536148Y-214889D01*
X536890Y-213778D01*
X537772Y-212772D01*
X538777Y-211891D01*
X539889Y-211148D01*
X541088Y-210556D01*
X542354Y-210127D01*
X543665Y-209866D01*
X545000Y-209778D01*
X595000D01*
X596334Y-209866D01*
D02*
G37*
G36*
X626334Y-239866D02*
X627645Y-240127D01*
X628911Y-240556D01*
X630110Y-241148D01*
X631222Y-241891D01*
X632228Y-242772D01*
X633109Y-243778D01*
X633852Y-244889D01*
X634443Y-246088D01*
X634873Y-247354D01*
X635134Y-248666D01*
X635221Y-250000D01*
Y-300000D01*
X635134Y-301334D01*
X634873Y-302646D01*
X634443Y-303912D01*
X633852Y-305111D01*
X633109Y-306223D01*
X632228Y-307228D01*
X631222Y-308110D01*
X630110Y-308852D01*
X628911Y-309444D01*
X627645Y-309874D01*
X626334Y-310135D01*
X625000Y-310222D01*
X595000D01*
X593666Y-310135D01*
X592354Y-309874D01*
X591088Y-309444D01*
X589889Y-308852D01*
X588777Y-308110D01*
X587772Y-307228D01*
X586890Y-306223D01*
X586148Y-305111D01*
X585556Y-303912D01*
X585126Y-302646D01*
X584865Y-301334D01*
X584778Y-300000D01*
Y-264500D01*
X584865Y-263166D01*
X585126Y-261854D01*
X585556Y-260589D01*
X586147Y-259389D01*
X586890Y-258278D01*
X587772Y-257273D01*
X602272Y-242772D01*
X603277Y-241891D01*
X604389Y-241148D01*
X605588Y-240556D01*
X605909Y-240447D01*
X606854Y-240127D01*
X608165Y-239866D01*
X609500Y-239778D01*
X625000D01*
X626334Y-239866D01*
D02*
G37*
G36*
Y140134D02*
X627645Y139873D01*
X628911Y139444D01*
X630110Y138852D01*
X631222Y138109D01*
X632228Y137228D01*
X633109Y136222D01*
X633852Y135111D01*
X634443Y133912D01*
X634873Y132646D01*
X635134Y131334D01*
X635221Y130000D01*
Y80000D01*
X635134Y78666D01*
X634873Y77354D01*
X634443Y76088D01*
X633852Y74889D01*
X633109Y73777D01*
X632228Y72772D01*
X631222Y71890D01*
X630110Y71148D01*
X628911Y70556D01*
X627645Y70126D01*
X626334Y69865D01*
X625000Y69778D01*
X609500D01*
X608165Y69865D01*
X606854Y70126D01*
X605909Y70447D01*
X605588Y70556D01*
X604389Y71147D01*
X603277Y71890D01*
X602272Y72772D01*
X587772Y87272D01*
X586890Y88277D01*
X586147Y89389D01*
X585556Y90588D01*
X585126Y91854D01*
X584865Y93166D01*
X584778Y94500D01*
Y130000D01*
X584865Y131334D01*
X585126Y132646D01*
X585556Y133912D01*
X586148Y135111D01*
X586890Y136222D01*
X587772Y137228D01*
X588777Y138109D01*
X589889Y138852D01*
X591088Y139444D01*
X592354Y139873D01*
X593666Y140134D01*
X595000Y140222D01*
X625000D01*
X626334Y140134D01*
D02*
G37*
G36*
X581834Y90134D02*
X583145Y89873D01*
X584411Y89444D01*
X585610Y88852D01*
X586722Y88110D01*
X587727Y87228D01*
X602228Y72728D01*
X603109Y71723D01*
X603852Y70611D01*
X604444Y69412D01*
X604553Y69091D01*
X604873Y68146D01*
X605134Y66834D01*
X605222Y65500D01*
Y50000D01*
X605134Y48666D01*
X604873Y47354D01*
X604444Y46088D01*
X603852Y44889D01*
X603109Y43777D01*
X602228Y42772D01*
X601222Y41890D01*
X600111Y41148D01*
X598911Y40556D01*
X597645Y40126D01*
X596334Y39866D01*
X595000Y39778D01*
X545000D01*
X543665Y39866D01*
X542354Y40126D01*
X541088Y40556D01*
X539889Y41148D01*
X538777Y41890D01*
X537772Y42772D01*
X536890Y43777D01*
X536148Y44889D01*
X535556Y46088D01*
X535126Y47354D01*
X534865Y48666D01*
X534778Y50000D01*
Y80000D01*
X534865Y81334D01*
X535126Y82646D01*
X535556Y83911D01*
X536148Y85111D01*
X536890Y86222D01*
X537772Y87228D01*
X538777Y88109D01*
X539889Y88852D01*
X541088Y89444D01*
X542354Y89873D01*
X543665Y90134D01*
X545000Y90222D01*
X580500D01*
X581834Y90134D01*
D02*
G37*
G36*
X976334Y-209866D02*
X977645Y-210127D01*
X978911Y-210556D01*
X980111Y-211148D01*
X981222Y-211891D01*
X982228Y-212772D01*
X983109Y-213778D01*
X983852Y-214889D01*
X984444Y-216088D01*
X984873Y-217354D01*
X985134Y-218666D01*
X985222Y-220000D01*
Y-250000D01*
X985134Y-251334D01*
X984873Y-252646D01*
X984444Y-253912D01*
X983852Y-255111D01*
X983109Y-256223D01*
X982228Y-257228D01*
X981222Y-258109D01*
X980111Y-258852D01*
X978911Y-259444D01*
X977645Y-259873D01*
X976334Y-260134D01*
X975000Y-260222D01*
X939500D01*
X938166Y-260134D01*
X936854Y-259873D01*
X935588Y-259444D01*
X934389Y-258852D01*
X933277Y-258110D01*
X932272Y-257228D01*
X917772Y-242728D01*
X916890Y-241723D01*
X916147Y-240611D01*
X915556Y-239412D01*
X915447Y-239091D01*
X915126Y-238146D01*
X914865Y-236834D01*
X914778Y-235500D01*
Y-220000D01*
X914865Y-218666D01*
X915126Y-217354D01*
X915556Y-216088D01*
X916148Y-214889D01*
X916890Y-213778D01*
X917772Y-212772D01*
X918777Y-211891D01*
X919889Y-211148D01*
X921088Y-210556D01*
X922354Y-210127D01*
X923665Y-209866D01*
X925000Y-209778D01*
X975000D01*
X976334Y-209866D01*
D02*
G37*
G36*
X911834Y-239866D02*
X913145Y-240127D01*
X914091Y-240447D01*
X914412Y-240556D01*
X915611Y-241148D01*
X916723Y-241891D01*
X917728Y-242772D01*
X932228Y-257273D01*
X933109Y-258278D01*
X933852Y-259389D01*
X934443Y-260589D01*
X934873Y-261854D01*
X935134Y-263166D01*
X935221Y-264500D01*
Y-300000D01*
X935134Y-301334D01*
X934873Y-302646D01*
X934443Y-303912D01*
X933852Y-305111D01*
X933109Y-306223D01*
X932227Y-307228D01*
X931222Y-308110D01*
X930110Y-308852D01*
X928911Y-309444D01*
X927645Y-309874D01*
X926334Y-310135D01*
X925000Y-310222D01*
X895000D01*
X893665Y-310135D01*
X892354Y-309874D01*
X891088Y-309444D01*
X889889Y-308852D01*
X888777Y-308110D01*
X887772Y-307228D01*
X886890Y-306223D01*
X886148Y-305111D01*
X885556Y-303912D01*
X885126Y-302646D01*
X884865Y-301334D01*
X884778Y-300000D01*
Y-250000D01*
X884865Y-248666D01*
X885126Y-247354D01*
X885556Y-246088D01*
X886148Y-244889D01*
X886890Y-243778D01*
X887772Y-242772D01*
X888777Y-241891D01*
X889889Y-241148D01*
X891088Y-240556D01*
X892354Y-240127D01*
X893665Y-239866D01*
X895000Y-239778D01*
X910500D01*
X911834Y-239866D01*
D02*
G37*
G36*
X926334Y140134D02*
X927645Y139873D01*
X928911Y139444D01*
X930110Y138852D01*
X931222Y138109D01*
X932227Y137228D01*
X933109Y136222D01*
X933852Y135111D01*
X934443Y133912D01*
X934873Y132646D01*
X935134Y131334D01*
X935221Y130000D01*
Y94500D01*
X935134Y93166D01*
X934873Y91854D01*
X934443Y90588D01*
X933852Y89389D01*
X933109Y88277D01*
X932228Y87272D01*
X917728Y72772D01*
X916723Y71890D01*
X915611Y71147D01*
X914412Y70556D01*
X914091Y70447D01*
X913145Y70126D01*
X911834Y69865D01*
X910500Y69778D01*
X895000D01*
X893665Y69865D01*
X892354Y70126D01*
X891088Y70556D01*
X889889Y71148D01*
X888777Y71890D01*
X887772Y72772D01*
X886890Y73777D01*
X886148Y74889D01*
X885556Y76088D01*
X885126Y77354D01*
X884865Y78666D01*
X884778Y80000D01*
Y130000D01*
X884865Y131334D01*
X885126Y132646D01*
X885556Y133912D01*
X886148Y135111D01*
X886890Y136222D01*
X887772Y137228D01*
X888777Y138109D01*
X889889Y138852D01*
X891088Y139444D01*
X892354Y139873D01*
X893665Y140134D01*
X895000Y140222D01*
X925000D01*
X926334Y140134D01*
D02*
G37*
G36*
X976334Y90134D02*
X977645Y89873D01*
X978911Y89444D01*
X980111Y88852D01*
X981222Y88109D01*
X982228Y87228D01*
X983109Y86222D01*
X983852Y85111D01*
X984444Y83911D01*
X984873Y82646D01*
X985134Y81334D01*
X985222Y80000D01*
Y50000D01*
X985134Y48666D01*
X984873Y47354D01*
X984444Y46088D01*
X983852Y44889D01*
X983109Y43777D01*
X982228Y42772D01*
X981222Y41890D01*
X980111Y41148D01*
X978911Y40556D01*
X977645Y40126D01*
X976334Y39866D01*
X975000Y39778D01*
X925000D01*
X923665Y39866D01*
X922354Y40126D01*
X921088Y40556D01*
X919889Y41148D01*
X918777Y41890D01*
X917772Y42772D01*
X916890Y43777D01*
X916148Y44889D01*
X915556Y46088D01*
X915126Y47354D01*
X914865Y48666D01*
X914778Y50000D01*
Y65500D01*
X914865Y66834D01*
X915126Y68146D01*
X915447Y69091D01*
X915556Y69412D01*
X916147Y70611D01*
X916890Y71723D01*
X917772Y72728D01*
X932272Y87228D01*
X933277Y88110D01*
X934389Y88852D01*
X935588Y89444D01*
X936854Y89873D01*
X938166Y90134D01*
X939500Y90222D01*
X975000D01*
X976334Y90134D01*
D02*
G37*
D11*
X-575000Y1322500D02*
D03*
Y1177500D02*
D03*
D57*
X-790000Y979300D02*
D03*
Y750700D02*
D03*
X-215000Y1175700D02*
D03*
Y1404300D02*
D03*
D58*
X-1552250Y290000D02*
D03*
Y240000D02*
D03*
Y190000D02*
D03*
Y340000D02*
D03*
Y390000D02*
D03*
Y440000D02*
D03*
Y140000D02*
D03*
Y90000D02*
D03*
D59*
Y505000D02*
D03*
Y585000D02*
D03*
Y25000D02*
D03*
Y-55000D02*
D03*
D60*
X492500Y-417500D02*
D03*
X642500D02*
D03*
X-1705000Y-340000D02*
D03*
X-1555000D02*
D03*
X400000Y-810000D02*
D03*
X250000D02*
D03*
X1162500Y-787500D02*
D03*
X1012500D02*
D03*
X-265000Y215000D02*
D03*
X-415000D02*
D03*
X-415000Y565000D02*
D03*
X-265000D02*
D03*
X-415000Y390000D02*
D03*
X-265000D02*
D03*
X-1695000Y860000D02*
D03*
X-1545000D02*
D03*
D61*
X1180000Y222500D02*
D03*
Y97500D02*
D03*
X1095000Y-485000D02*
D03*
Y-610000D02*
D03*
X1685000Y-617500D02*
D03*
Y-492500D02*
D03*
X385000Y77500D02*
D03*
Y-47500D02*
D03*
X875000Y862500D02*
D03*
Y737500D02*
D03*
X-1075000Y937500D02*
D03*
Y812500D02*
D03*
X-1300000Y937500D02*
D03*
Y812500D02*
D03*
D62*
X565000Y-235000D02*
D03*
X955000Y65000D02*
D03*
X565000D02*
D03*
X955000Y-235000D02*
D03*
D63*
X610000Y110000D02*
D03*
X910000Y-280000D02*
D03*
X610000D02*
D03*
X910000Y110000D02*
D03*
D64*
X947500Y-185000D02*
D03*
Y-135000D02*
D03*
Y-85000D02*
D03*
Y-35000D02*
D03*
Y15000D02*
D03*
X572500D02*
D03*
Y-35000D02*
D03*
Y-85000D02*
D03*
Y-135000D02*
D03*
Y-185000D02*
D03*
D65*
X860000Y102500D02*
D03*
X810000D02*
D03*
X760000D02*
D03*
X710000D02*
D03*
X660000D02*
D03*
Y-272500D02*
D03*
X710000D02*
D03*
X760000D02*
D03*
X810000D02*
D03*
X860000D02*
D03*
D66*
X1262500Y-435000D02*
D03*
Y-625000D02*
D03*
X1492500Y-435000D02*
D03*
Y-625000D02*
D03*
D67*
X1550000Y-147500D02*
D03*
X1425000D02*
D03*
X537500Y975000D02*
D03*
X412500D02*
D03*
X1247500Y440000D02*
D03*
X1372500D02*
D03*
D68*
X320000Y675000D02*
D03*
X730000D02*
D03*
D69*
X375000Y545000D02*
D03*
X425000D02*
D03*
X475000D02*
D03*
X525000D02*
D03*
X575000D02*
D03*
X625000D02*
D03*
X675000D02*
D03*
Y805000D02*
D03*
X625000D02*
D03*
X575000D02*
D03*
X525000D02*
D03*
X475000D02*
D03*
X425000D02*
D03*
X375000D02*
D03*
D70*
X72500Y-1070000D02*
D03*
X197500D02*
D03*
X447500D02*
D03*
X572500D02*
D03*
X322500D02*
D03*
X697500D02*
D03*
D71*
X-112500Y-1350000D02*
D03*
X882500D02*
D03*
D72*
X1435000Y213500D02*
D03*
Y16500D02*
D03*
D73*
X-320000Y745000D02*
D03*
X-415000D02*
D03*
X-510000D02*
D03*
Y985000D02*
D03*
X-415000D02*
D03*
X-320000D02*
D03*
D74*
X-1293500Y572500D02*
D03*
X-1096500D02*
D03*
D75*
X207000Y-471500D02*
D03*
X80000D02*
D03*
X-47000D02*
D03*
X207000Y-598500D02*
D03*
X80000D02*
D03*
X-47000D02*
D03*
D76*
X-1609750Y-167000D02*
D03*
Y697000D02*
D03*
D77*
X-1659750Y554000D02*
D03*
Y-24000D02*
D03*
D78*
X-2027750Y697000D02*
D03*
Y-167000D02*
D03*
D79*
X-1900000Y1250000D02*
D03*
Y-1250000D02*
D03*
X1900000D02*
D03*
Y1250000D02*
D03*
D80*
X334000Y-636600D02*
D03*
Y-433400D02*
D03*
X-174000Y-535000D02*
D03*
D81*
X-387500Y-285000D02*
D03*
X-1295000Y390000D02*
D03*
X-1302984Y-472386D02*
D03*
X-70700Y1175700D02*
D03*
X1772500Y-35000D02*
D03*
X1197500Y-1122500D02*
D03*
X-1545000Y1127500D02*
D03*
X525000Y-582500D02*
D03*
X32500Y117500D02*
D03*
X-405000Y-970000D02*
D03*
X272500Y157500D02*
D03*
X262500Y417500D02*
D03*
X875000Y982500D02*
D03*
X1075000Y222500D02*
D03*
X1492520Y-767878D02*
D03*
X1260000Y-325000D02*
D03*
X1165000Y-902500D02*
D03*
X1022500Y-900000D02*
D03*
X-412500Y-555000D02*
D03*
X-405000Y-695000D02*
D03*
X1322500Y-787500D02*
D03*
X892500Y-735000D02*
D03*
X620000Y-645000D02*
D03*
X62500Y970000D02*
D03*
X-162500Y392500D02*
D03*
X577500Y255000D02*
D03*
X550000Y357500D02*
D03*
X420000Y427500D02*
D03*
X385000Y315000D02*
D03*
X888916Y203124D02*
D03*
X1050000Y375000D02*
D03*
D82*
X-1295000Y27500D02*
D03*
D83*
X725000Y325000D02*
D03*
D84*
X-150000Y750000D02*
D03*
%TF.MD5,b968452295cfdf0f06932eee2ea72278*%
M02*
