%TF.GenerationSoftware,Altium Limited,Altium Designer,24.4.1 (13)*%
G04 Layer_Color=2752767*
%FSLAX45Y45*%
%MOMM*%
%TF.SameCoordinates,B8B7DE2E-4358-4D64-837E-663932822D10*%
%TF.FilePolarity,Positive*%
%TF.FileFunction,Drawing*%
%TF.Part,Single*%
G01*
G75*
%TA.AperFunction,NonConductor*%
%ADD96C,0.16933*%
%ADD98C,0.12700*%
D96*
X-1558950Y-167000D02*
G03*
X-1558950Y-167000I-50800J0D01*
G01*
Y697000D02*
G03*
X-1558950Y697000I-50800J0D01*
G01*
D98*
X-1659750Y503200D02*
X-1710550Y604800D01*
X-1608950D01*
X-1659750Y503200D01*
Y-74800D02*
X-1710550Y26800D01*
X-1608950D01*
X-1659750Y-74800D01*
X-2027750Y646200D02*
X-2002350Y671600D01*
X-1976950D01*
X-2002350Y697000D01*
X-1976950Y722400D01*
X-2002350D01*
X-2027750Y747800D01*
X-2053150Y722400D01*
X-2078550D01*
X-2053150Y697000D01*
X-2078550Y671600D01*
X-2053150D01*
X-2027750Y646200D01*
Y-217800D02*
X-2002350Y-192400D01*
X-1976950D01*
X-2002350Y-167000D01*
X-1976950Y-141600D01*
X-2002350D01*
X-2027750Y-116200D01*
X-2053150Y-141600D01*
X-2078550D01*
X-2053150Y-167000D01*
X-2078550Y-192400D01*
X-2053150D01*
X-2027750Y-217800D01*
X-1950800Y1199200D02*
X-1925400Y1250000D01*
X-1950800Y1300800D01*
X-1900000Y1275400D01*
X-1849200Y1300800D01*
X-1874600Y1250000D01*
X-1849200Y1199200D01*
X-1900000Y1224600D01*
X-1950800Y1199200D01*
Y-1300800D02*
X-1925400Y-1250000D01*
X-1950800Y-1199200D01*
X-1900000Y-1224600D01*
X-1849200Y-1199200D01*
X-1874600Y-1250000D01*
X-1849200Y-1300800D01*
X-1900000Y-1275400D01*
X-1950800Y-1300800D01*
X1849200D02*
X1874600Y-1250000D01*
X1849200Y-1199200D01*
X1900000Y-1224600D01*
X1950800Y-1199200D01*
X1925400Y-1250000D01*
X1950800Y-1300800D01*
X1900000Y-1275400D01*
X1849200Y-1300800D01*
Y1199200D02*
X1874600Y1250000D01*
X1849200Y1300800D01*
X1900000Y1275400D01*
X1950800Y1300800D01*
X1925400Y1250000D01*
X1950800Y1199200D01*
X1900000Y1224600D01*
X1849200Y1199200D01*
X283200Y-687400D02*
Y-585800D01*
X384800D01*
Y-687400D01*
X283200D01*
Y-484200D02*
Y-382600D01*
X384800D01*
Y-484200D01*
X283200D01*
X-224800Y-585800D02*
Y-484200D01*
X-123200D01*
Y-585800D01*
X-224800D01*
X-412900Y-310400D02*
Y-335800D01*
X-362100D01*
Y-310400D01*
X-336700D01*
Y-259600D01*
X-362100D01*
Y-234200D01*
X-412900D01*
Y-259600D01*
X-438300D01*
Y-310400D01*
X-412900D01*
X-1320400Y364600D02*
Y339200D01*
X-1269600D01*
Y364600D01*
X-1244200D01*
Y415400D01*
X-1269600D01*
Y440800D01*
X-1320400D01*
Y415400D01*
X-1345800D01*
Y364600D01*
X-1320400D01*
X-1328384Y-497786D02*
Y-523186D01*
X-1277584D01*
Y-497786D01*
X-1252184D01*
Y-446986D01*
X-1277584D01*
Y-421586D01*
X-1328384D01*
Y-446986D01*
X-1353784D01*
Y-497786D01*
X-1328384D01*
X-96100Y1150300D02*
Y1124900D01*
X-45300D01*
Y1150300D01*
X-19900D01*
Y1201100D01*
X-45300D01*
Y1226500D01*
X-96100D01*
Y1201100D01*
X-121500D01*
Y1150300D01*
X-96100D01*
X1747100Y-60400D02*
Y-85800D01*
X1797900D01*
Y-60400D01*
X1823300D01*
Y-9600D01*
X1797900D01*
Y15800D01*
X1747100D01*
Y-9600D01*
X1721700D01*
Y-60400D01*
X1747100D01*
X1172100Y-1147900D02*
Y-1173300D01*
X1222900D01*
Y-1147900D01*
X1248300D01*
Y-1097100D01*
X1222900D01*
Y-1071700D01*
X1172100D01*
Y-1097100D01*
X1146700D01*
Y-1147900D01*
X1172100D01*
X-1570400Y1102100D02*
Y1076700D01*
X-1519600D01*
Y1102100D01*
X-1494200D01*
Y1152900D01*
X-1519600D01*
Y1178300D01*
X-1570400D01*
Y1152900D01*
X-1595800D01*
Y1102100D01*
X-1570400D01*
X-1345800Y-23300D02*
X-1320400D01*
X-1295000Y2100D01*
X-1269600Y-23300D01*
X-1244200D01*
Y2100D01*
X-1269600Y27500D01*
X-1244200Y52900D01*
Y78300D01*
X-1269600D01*
X-1295000Y52900D01*
X-1320400Y78300D01*
X-1345800D01*
Y52900D01*
X-1320400Y27500D01*
X-1345800Y2100D01*
Y-23300D01*
X499600Y-607900D02*
Y-633300D01*
X550400D01*
Y-607900D01*
X575800D01*
Y-557100D01*
X550400D01*
Y-531700D01*
X499600D01*
Y-557100D01*
X474200D01*
Y-607900D01*
X499600D01*
X7100Y92100D02*
Y66700D01*
X57900D01*
Y92100D01*
X83300D01*
Y142900D01*
X57900D01*
Y168300D01*
X7100D01*
Y142900D01*
X-18300D01*
Y92100D01*
X7100D01*
X-430400Y-995400D02*
Y-1020800D01*
X-379600D01*
Y-995400D01*
X-354200D01*
Y-944600D01*
X-379600D01*
Y-919200D01*
X-430400D01*
Y-944600D01*
X-455800D01*
Y-995400D01*
X-430400D01*
X247100Y132100D02*
Y106700D01*
X297900D01*
Y132100D01*
X323300D01*
Y182900D01*
X297900D01*
Y208300D01*
X247100D01*
Y182900D01*
X221700D01*
Y132100D01*
X247100D01*
X237100Y392100D02*
Y366700D01*
X287900D01*
Y392100D01*
X313300D01*
Y442900D01*
X287900D01*
Y468300D01*
X237100D01*
Y442900D01*
X211700D01*
Y392100D01*
X237100D01*
X849600Y957100D02*
Y931700D01*
X900400D01*
Y957100D01*
X925800D01*
Y1007900D01*
X900400D01*
Y1033300D01*
X849600D01*
Y1007900D01*
X824200D01*
Y957100D01*
X849600D01*
X1049600Y197100D02*
Y171700D01*
X1100400D01*
Y197100D01*
X1125800D01*
Y247900D01*
X1100400D01*
Y273300D01*
X1049600D01*
Y247900D01*
X1024200D01*
Y197100D01*
X1049600D01*
X1467120Y-793278D02*
Y-818678D01*
X1517920D01*
Y-793278D01*
X1543320D01*
Y-742478D01*
X1517920D01*
Y-717078D01*
X1467120D01*
Y-742478D01*
X1441720D01*
Y-793278D01*
X1467120D01*
X1234600Y-350400D02*
Y-375800D01*
X1285400D01*
Y-350400D01*
X1310800D01*
Y-299600D01*
X1285400D01*
Y-274200D01*
X1234600D01*
Y-299600D01*
X1209200D01*
Y-350400D01*
X1234600D01*
X1139600Y-927900D02*
Y-953300D01*
X1190400D01*
Y-927900D01*
X1215800D01*
Y-877100D01*
X1190400D01*
Y-851700D01*
X1139600D01*
Y-877100D01*
X1114200D01*
Y-927900D01*
X1139600D01*
X997100Y-925400D02*
Y-950800D01*
X1047900D01*
Y-925400D01*
X1073300D01*
Y-874600D01*
X1047900D01*
Y-849200D01*
X997100D01*
Y-874600D01*
X971700D01*
Y-925400D01*
X997100D01*
X-437900Y-580400D02*
Y-605800D01*
X-387100D01*
Y-580400D01*
X-361700D01*
Y-529600D01*
X-387100D01*
Y-504200D01*
X-437900D01*
Y-529600D01*
X-463300D01*
Y-580400D01*
X-437900D01*
X-430400Y-720400D02*
Y-745800D01*
X-379600D01*
Y-720400D01*
X-354200D01*
Y-669600D01*
X-379600D01*
Y-644200D01*
X-430400D01*
Y-669600D01*
X-455800D01*
Y-720400D01*
X-430400D01*
X1297100Y-812900D02*
Y-838300D01*
X1347900D01*
Y-812900D01*
X1373300D01*
Y-762100D01*
X1347900D01*
Y-736700D01*
X1297100D01*
Y-762100D01*
X1271700D01*
Y-812900D01*
X1297100D01*
X867100Y-760400D02*
Y-785800D01*
X917900D01*
Y-760400D01*
X943300D01*
Y-709600D01*
X917900D01*
Y-684200D01*
X867100D01*
Y-709600D01*
X841700D01*
Y-760400D01*
X867100D01*
X594600Y-670400D02*
Y-695800D01*
X645400D01*
Y-670400D01*
X670800D01*
Y-619600D01*
X645400D01*
Y-594200D01*
X594600D01*
Y-619600D01*
X569200D01*
Y-670400D01*
X594600D01*
X37100Y944600D02*
Y919200D01*
X87900D01*
Y944600D01*
X113300D01*
Y995400D01*
X87900D01*
Y1020800D01*
X37100D01*
Y995400D01*
X11700D01*
Y944600D01*
X37100D01*
X-187900Y367100D02*
Y341700D01*
X-137100D01*
Y367100D01*
X-111700D01*
Y417900D01*
X-137100D01*
Y443300D01*
X-187900D01*
Y417900D01*
X-213300D01*
Y367100D01*
X-187900D01*
X552100Y229600D02*
Y204200D01*
X602900D01*
Y229600D01*
X628300D01*
Y280400D01*
X602900D01*
Y305800D01*
X552100D01*
Y280400D01*
X526700D01*
Y229600D01*
X552100D01*
X524600Y332100D02*
Y306700D01*
X575400D01*
Y332100D01*
X600800D01*
Y382900D01*
X575400D01*
Y408300D01*
X524600D01*
Y382900D01*
X499200D01*
Y332100D01*
X524600D01*
X394600Y402100D02*
Y376700D01*
X445400D01*
Y402100D01*
X470800D01*
Y452900D01*
X445400D01*
Y478300D01*
X394600D01*
Y452900D01*
X369200D01*
Y402100D01*
X394600D01*
X359600Y289600D02*
Y264200D01*
X410400D01*
Y289600D01*
X435800D01*
Y340400D01*
X410400D01*
Y365800D01*
X359600D01*
Y340400D01*
X334200D01*
Y289600D01*
X359600D01*
X699600Y299600D02*
Y274200D01*
X750400D01*
Y299600D01*
X775800D01*
Y350400D01*
X750400D01*
Y375800D01*
X699600D01*
Y350400D01*
X674200D01*
Y299600D01*
X699600D01*
X863516Y177724D02*
Y152324D01*
X914316D01*
Y177724D01*
X939716D01*
Y228524D01*
X914316D01*
Y253924D01*
X863516D01*
Y228524D01*
X838116D01*
Y177724D01*
X863516D01*
X1024600Y349600D02*
Y324200D01*
X1075400D01*
Y349600D01*
X1100800D01*
Y400400D01*
X1075400D01*
Y425800D01*
X1024600D01*
Y400400D01*
X999200D01*
Y349600D01*
X1024600D01*
X-175400Y724600D02*
Y699200D01*
X-124600D01*
Y724600D01*
X-99200D01*
Y775400D01*
X-124600D01*
Y800800D01*
X-175400D01*
Y775400D01*
X-200800D01*
Y724600D01*
X-175400D01*
%TF.MD5,0bc1e8b59744ab3aa903ad3ad07e9ef3*%
M02*
