%TF.GenerationSoftware,Altium Limited,Altium Designer,24.4.1 (13)*%
G04 Layer_Physical_Order=1*
G04 Layer_Color=255*
%FSLAX45Y45*%
%MOMM*%
%TF.SameCoordinates,B8B7DE2E-4358-4D64-837E-663932822D10*%
%TF.FilePolarity,Positive*%
%TF.FileFunction,Copper,L1,Top,Signal*%
%TF.Part,Single*%
G01*
G75*
%TA.AperFunction,Conductor*%
%ADD10C,0.30000*%
%TA.AperFunction,SMDPad,CuDef*%
%ADD11R,2.00000X0.70000*%
G04:AMPARAMS|DCode=12|XSize=1.4mm|YSize=1.7mm|CornerRadius=0.175mm|HoleSize=0mm|Usage=FLASHONLY|Rotation=270.000|XOffset=0mm|YOffset=0mm|HoleType=Round|Shape=RoundedRectangle|*
%AMROUNDEDRECTD12*
21,1,1.40000,1.35000,0,0,270.0*
21,1,1.05000,1.70000,0,0,270.0*
1,1,0.35000,-0.67500,-0.52500*
1,1,0.35000,-0.67500,0.52500*
1,1,0.35000,0.67500,0.52500*
1,1,0.35000,0.67500,-0.52500*
%
%ADD12ROUNDEDRECTD12*%
%TA.AperFunction,TestPad*%
G04:AMPARAMS|DCode=13|XSize=0.3mm|YSize=1.15mm|CornerRadius=0.0375mm|HoleSize=0mm|Usage=FLASHONLY|Rotation=270.000|XOffset=0mm|YOffset=0mm|HoleType=Round|Shape=RoundedRectangle|*
%AMROUNDEDRECTD13*
21,1,0.30000,1.07500,0,0,270.0*
21,1,0.22500,1.15000,0,0,270.0*
1,1,0.07500,-0.53750,-0.11250*
1,1,0.07500,-0.53750,0.11250*
1,1,0.07500,0.53750,0.11250*
1,1,0.07500,0.53750,-0.11250*
%
%ADD13ROUNDEDRECTD13*%
G04:AMPARAMS|DCode=14|XSize=0.6mm|YSize=1.15mm|CornerRadius=0.075mm|HoleSize=0mm|Usage=FLASHONLY|Rotation=270.000|XOffset=0mm|YOffset=0mm|HoleType=Round|Shape=RoundedRectangle|*
%AMROUNDEDRECTD14*
21,1,0.60000,1.00000,0,0,270.0*
21,1,0.45000,1.15000,0,0,270.0*
1,1,0.15000,-0.50000,-0.22500*
1,1,0.15000,-0.50000,0.22500*
1,1,0.15000,0.50000,0.22500*
1,1,0.15000,0.50000,-0.22500*
%
%ADD14ROUNDEDRECTD14*%
%TA.AperFunction,SMDPad,CuDef*%
G04:AMPARAMS|DCode=15|XSize=0.8mm|YSize=1mm|CornerRadius=0.1mm|HoleSize=0mm|Usage=FLASHONLY|Rotation=180.000|XOffset=0mm|YOffset=0mm|HoleType=Round|Shape=RoundedRectangle|*
%AMROUNDEDRECTD15*
21,1,0.80000,0.80000,0,0,180.0*
21,1,0.60000,1.00000,0,0,180.0*
1,1,0.20000,-0.30000,0.40000*
1,1,0.20000,0.30000,0.40000*
1,1,0.20000,0.30000,-0.40000*
1,1,0.20000,-0.30000,-0.40000*
%
%ADD15ROUNDEDRECTD15*%
%ADD16R,0.95000X0.95000*%
%ADD17R,0.30000X0.25000*%
%ADD18R,0.25000X0.30000*%
%ADD19R,0.55000X0.30000*%
%ADD20R,0.30000X0.55000*%
G04:AMPARAMS|DCode=21|XSize=1.3mm|YSize=1.1mm|CornerRadius=0.055mm|HoleSize=0mm|Usage=FLASHONLY|Rotation=180.000|XOffset=0mm|YOffset=0mm|HoleType=Round|Shape=RoundedRectangle|*
%AMROUNDEDRECTD21*
21,1,1.30000,0.99000,0,0,180.0*
21,1,1.19000,1.10000,0,0,180.0*
1,1,0.11000,-0.59500,0.49500*
1,1,0.11000,0.59500,0.49500*
1,1,0.11000,0.59500,-0.49500*
1,1,0.11000,-0.59500,-0.49500*
%
%ADD21ROUNDEDRECTD21*%
%ADD22R,0.95000X0.95000*%
%ADD23R,0.75000X0.30000*%
%ADD24R,0.30000X0.75000*%
%TA.AperFunction,ConnectorPad*%
%ADD25R,0.65000X1.70000*%
%ADD26R,1.00000X2.90000*%
%TA.AperFunction,SMDPad,CuDef*%
%ADD27R,1.57000X1.33000*%
G04:AMPARAMS|DCode=28|XSize=0.6mm|YSize=1.2mm|CornerRadius=0.075mm|HoleSize=0mm|Usage=FLASHONLY|Rotation=180.000|XOffset=0mm|YOffset=0mm|HoleType=Round|Shape=RoundedRectangle|*
%AMROUNDEDRECTD28*
21,1,0.60000,1.05000,0,0,180.0*
21,1,0.45000,1.20000,0,0,180.0*
1,1,0.15000,-0.22500,0.52500*
1,1,0.15000,0.22500,0.52500*
1,1,0.15000,0.22500,-0.52500*
1,1,0.15000,-0.22500,-0.52500*
%
%ADD28ROUNDEDRECTD28*%
%ADD29R,1.33000X1.57000*%
%TA.AperFunction,BGAPad,CuDef*%
%ADD30C,0.86300*%
%TA.AperFunction,Conductor*%
%ADD31C,0.40000*%
%ADD32C,0.50000*%
%ADD33C,0.60000*%
%ADD34C,0.38100*%
%ADD35C,0.20000*%
%ADD36C,0.70000*%
%ADD37C,0.80000*%
%ADD38C,0.90000*%
%ADD39C,1.00000*%
%ADD40C,0.75000*%
%TA.AperFunction,TestPad*%
%ADD41O,2.10000X1.00000*%
%ADD42C,0.65000*%
%ADD43O,1.80000X1.00000*%
%TA.AperFunction,ViaPad*%
%ADD44C,4.00000*%
%TA.AperFunction,ComponentPad*%
%ADD45C,1.06700*%
%TA.AperFunction,ViaPad*%
%ADD46C,0.55000*%
%ADD47C,0.71120*%
%ADD48C,0.60000*%
%ADD49C,0.70000*%
G36*
X1985538Y1470611D02*
X2018159Y1457099D01*
X2047516Y1437483D01*
X2060000Y1425000D01*
X2067361Y1417639D01*
X2085227Y1399772D01*
X2113303Y1357755D01*
X2132641Y1311067D01*
X2142500Y1261504D01*
Y1236238D01*
Y-1251434D01*
Y-1276655D01*
X2132659Y-1326126D01*
X2113356Y-1372727D01*
X2085333Y-1414667D01*
X2067500Y-1432500D01*
X2054422Y-1445578D01*
X2023666Y-1466128D01*
X1989492Y-1480284D01*
X1953213Y-1487500D01*
X952500D01*
Y-1185000D01*
X812500D01*
Y-1487500D01*
X-42500D01*
Y-1185000D01*
X-182500D01*
Y-1487500D01*
X-1934967D01*
X-1983941Y-1477759D01*
X-2030074Y-1458650D01*
X-2071592Y-1430908D01*
X-2089246Y-1413254D01*
X-2112500Y-1390000D01*
X-2117850Y-1384650D01*
X-2126257Y-1372068D01*
X-2132048Y-1358088D01*
X-2135000Y-1343246D01*
Y-1335680D01*
Y-218985D01*
X-2120000Y-213894D01*
X-2117674Y-216925D01*
X-2103052Y-228145D01*
X-2086023Y-235198D01*
X-2067750Y-237604D01*
X-1987750D01*
X-1969476Y-235198D01*
X-1952448Y-228145D01*
X-1937825Y-216925D01*
X-1926605Y-202302D01*
X-1919552Y-185274D01*
X-1917146Y-167000D01*
X-1919552Y-148727D01*
X-1926605Y-131698D01*
X-1937825Y-117076D01*
X-1952448Y-105856D01*
X-1969476Y-98802D01*
X-1987750Y-96396D01*
X-2067750D01*
X-2086023Y-98802D01*
X-2103052Y-105856D01*
X-2117674Y-117076D01*
X-2120000Y-120107D01*
X-2135000Y-115015D01*
Y645014D01*
X-2120000Y650106D01*
X-2117674Y647075D01*
X-2103052Y635855D01*
X-2086023Y628802D01*
X-2067750Y626396D01*
X-1987750D01*
X-1969476Y628802D01*
X-1952448Y635855D01*
X-1937825Y647075D01*
X-1926605Y661698D01*
X-1919552Y678726D01*
X-1917146Y697000D01*
X-1919552Y715273D01*
X-1926605Y732302D01*
X-1937825Y746924D01*
X-1952448Y758144D01*
X-1969476Y765198D01*
X-1987750Y767603D01*
X-2067750D01*
X-2086023Y765198D01*
X-2103052Y758144D01*
X-2117674Y746924D01*
X-2120000Y743893D01*
X-2135000Y748985D01*
Y937500D01*
Y1255576D01*
Y1277433D01*
X-2126472Y1320309D01*
X-2109743Y1360696D01*
X-2085456Y1397044D01*
X-2070000Y1412500D01*
X-2054545Y1427955D01*
X-2018197Y1452242D01*
X-1977809Y1468971D01*
X-1934934Y1477500D01*
X-720685D01*
X-713977Y1464084D01*
X-765913Y1394835D01*
X-767019Y1392530D01*
X-768440Y1390404D01*
X-768724Y1388974D01*
X-769354Y1387661D01*
X-769493Y1385108D01*
X-769992Y1382600D01*
Y1275000D01*
X-768440Y1267196D01*
X-764019Y1260581D01*
X-757404Y1256160D01*
X-749600Y1254608D01*
X-350000D01*
X-347099Y1255185D01*
X-344155Y1255464D01*
X-321615Y1262208D01*
X66954D01*
X190780Y1138382D01*
X184567Y1123382D01*
X170000D01*
X152442Y1119889D01*
X137557Y1109943D01*
X39500Y1011887D01*
X35594Y1010268D01*
X22232Y996907D01*
X15000Y979448D01*
Y960552D01*
X22232Y943094D01*
X35594Y929732D01*
X53052Y922500D01*
X71948D01*
X89406Y929732D01*
X102768Y943094D01*
X104387Y947000D01*
X189005Y1031618D01*
X205008D01*
Y982601D01*
X205008Y982600D01*
X206560Y974796D01*
X210981Y968181D01*
X210982Y968180D01*
X238388Y940774D01*
X57557Y759943D01*
X50686Y749660D01*
X35686Y754210D01*
Y850000D01*
X32969Y863656D01*
X25234Y875234D01*
X-109766Y1010233D01*
X-121343Y1017969D01*
X-135000Y1020686D01*
X-269462D01*
Y1037500D01*
X-271596Y1048230D01*
X-277674Y1057326D01*
X-286771Y1063404D01*
X-297501Y1065538D01*
X-342500D01*
X-353230Y1063404D01*
X-362327Y1057326D01*
X-368405Y1048230D01*
X-370539Y1037500D01*
Y932500D01*
X-368405Y921770D01*
X-362327Y912674D01*
X-353230Y906596D01*
X-342500Y904461D01*
X-297501D01*
X-286771Y906596D01*
X-277674Y912674D01*
X-271596Y921770D01*
X-269462Y932500D01*
Y949314D01*
X-149781D01*
X-35686Y835219D01*
Y264782D01*
X-164781Y135686D01*
X-212840D01*
X-217390Y150686D01*
X-213371Y153371D01*
X-206741Y163294D01*
X-204412Y175000D01*
Y254999D01*
X-206741Y266705D01*
X-213371Y276628D01*
X-219118Y280468D01*
Y324531D01*
X-213371Y328371D01*
X-206741Y338294D01*
X-205582Y344118D01*
X-166353D01*
X-161919Y345000D01*
X-153052D01*
X-135594Y352232D01*
X-122232Y365594D01*
X-115000Y383052D01*
Y401948D01*
X-122232Y419407D01*
X-135594Y432769D01*
X-153052Y440000D01*
X-171948D01*
X-181892Y435881D01*
X-205582D01*
X-206741Y441705D01*
X-213371Y451629D01*
X-223295Y458259D01*
X-235000Y460587D01*
X-295000D01*
X-306705Y458259D01*
X-316629Y451629D01*
X-323259Y441705D01*
X-325588Y430000D01*
Y350000D01*
X-323259Y338294D01*
X-316629Y328371D01*
X-310882Y324531D01*
Y280468D01*
X-316629Y276628D01*
X-323259Y266705D01*
X-325588Y254999D01*
Y175000D01*
X-323259Y163294D01*
X-316629Y153371D01*
X-312610Y150686D01*
X-317160Y135686D01*
X-362840D01*
X-367390Y150686D01*
X-363371Y153371D01*
X-356741Y163294D01*
X-354412Y175000D01*
Y254999D01*
X-356741Y266705D01*
X-363371Y276628D01*
X-369118Y280468D01*
Y324531D01*
X-363371Y328371D01*
X-356741Y338294D01*
X-354412Y350000D01*
Y430000D01*
X-356741Y441705D01*
X-363371Y451629D01*
X-369118Y455468D01*
Y499531D01*
X-363371Y503371D01*
X-356741Y513294D01*
X-354413Y525000D01*
Y605000D01*
X-356741Y616705D01*
X-363371Y626628D01*
X-369119Y630468D01*
Y677995D01*
X-366596Y681770D01*
X-364462Y692500D01*
Y797500D01*
X-366596Y808230D01*
X-372674Y817326D01*
X-381771Y823404D01*
X-392501Y825538D01*
X-437500D01*
X-448230Y823404D01*
X-457326Y817326D01*
X-458384Y817222D01*
X-475581Y834419D01*
X-482196Y838840D01*
X-490000Y840392D01*
X-573826D01*
X-598689Y856967D01*
X-600535Y857730D01*
X-602196Y858840D01*
X-604176Y859233D01*
X-606042Y860004D01*
X-608041Y860002D01*
X-610000Y860392D01*
X-861553D01*
X-880581Y879419D01*
X-887196Y883840D01*
X-895000Y885392D01*
X-1125000D01*
X-1132804Y883840D01*
X-1138550Y880000D01*
X-1142500D01*
Y876339D01*
X-1154419Y864419D01*
X-1158840Y857804D01*
X-1160392Y850000D01*
Y718447D01*
X-1194893Y683946D01*
X-1205000Y674937D01*
X-1215107Y683946D01*
X-1219608Y688447D01*
Y849999D01*
X-1219608Y850000D01*
X-1221160Y857804D01*
X-1225580Y864420D01*
X-1232500Y871339D01*
Y880000D01*
X-1241449D01*
X-1247196Y883840D01*
X-1255000Y885392D01*
X-1385000D01*
X-1392804Y883840D01*
X-1399419Y879419D01*
X-1399420Y879419D01*
X-1408190Y870649D01*
X-1412610Y864033D01*
X-1414162Y856230D01*
Y653444D01*
X-1416859Y639884D01*
X-1416955Y639741D01*
X-1417724Y637886D01*
X-1418839Y636216D01*
X-1419231Y634246D01*
X-1420000Y632391D01*
Y630382D01*
X-1420383Y628455D01*
X-1493447Y555392D01*
X-1499542D01*
X-1500527Y555196D01*
X-1502250Y555538D01*
X-1602250D01*
X-1602541Y555480D01*
X-1612250Y563448D01*
X-1619481Y580906D01*
X-1632843Y594268D01*
X-1650301Y601500D01*
X-1669198D01*
X-1686657Y594268D01*
X-1700018Y580906D01*
X-1707250Y563448D01*
Y544551D01*
X-1700018Y527093D01*
X-1686657Y513731D01*
X-1669198Y506500D01*
X-1650301D01*
X-1645392Y508533D01*
X-1630392Y498510D01*
Y489963D01*
X-1630289Y489445D01*
Y482500D01*
X-1628154Y471770D01*
X-1624503Y466306D01*
X-1628372Y460516D01*
X-1630215Y451250D01*
Y428750D01*
X-1632730Y425686D01*
X-1675218D01*
X-1724064Y474531D01*
Y635622D01*
X-1709064Y642770D01*
X-1700052Y635855D01*
X-1683024Y628802D01*
X-1664750Y626396D01*
X-1554750D01*
X-1536476Y628802D01*
X-1519448Y635855D01*
X-1504825Y647075D01*
X-1493605Y661698D01*
X-1486552Y678726D01*
X-1484146Y697000D01*
X-1486552Y715273D01*
X-1493605Y732302D01*
X-1504825Y746924D01*
X-1519448Y758144D01*
X-1536476Y765198D01*
X-1554750Y767603D01*
X-1664750D01*
X-1683024Y765198D01*
X-1700052Y758144D01*
X-1707692Y752282D01*
X-1720955Y758350D01*
X-1722367Y772166D01*
X-1705121Y789412D01*
X-1665000D01*
X-1653295Y791741D01*
X-1643371Y798371D01*
X-1636741Y808295D01*
X-1634413Y820000D01*
Y900000D01*
X-1636741Y911705D01*
X-1643371Y921629D01*
X-1653295Y928259D01*
X-1665000Y930588D01*
X-1725000D01*
X-1736705Y928259D01*
X-1746629Y921629D01*
X-1753259Y911705D01*
X-1755588Y900000D01*
Y839880D01*
X-1784983Y810484D01*
X-1792719Y798907D01*
X-1795436Y785250D01*
Y459750D01*
X-1792719Y446094D01*
X-1784983Y434516D01*
X-1715234Y364766D01*
X-1703656Y357031D01*
X-1690000Y354314D01*
X-1632730D01*
X-1630215Y351249D01*
Y328750D01*
X-1628372Y319483D01*
X-1625376Y315000D01*
X-1628372Y310517D01*
X-1630215Y301250D01*
Y278750D01*
X-1628372Y269483D01*
X-1625376Y265000D01*
X-1628372Y260517D01*
X-1630215Y251250D01*
Y228750D01*
X-1628372Y219483D01*
X-1625376Y215000D01*
X-1628372Y210516D01*
X-1630215Y201250D01*
Y178750D01*
X-1628372Y169483D01*
X-1625376Y165000D01*
X-1628372Y160517D01*
X-1630215Y151250D01*
Y128750D01*
X-1632730Y125686D01*
X-1672374D01*
X-1672375Y125686D01*
X-1750000D01*
X-1763656Y122969D01*
X-1775234Y115234D01*
X-1855234Y35234D01*
X-1862969Y23657D01*
X-1865686Y10000D01*
Y-205000D01*
X-1862969Y-218657D01*
X-1855234Y-230234D01*
X-1765588Y-319880D01*
Y-380000D01*
X-1763259Y-391705D01*
X-1756629Y-401629D01*
X-1746705Y-408259D01*
X-1735000Y-410588D01*
X-1675000D01*
X-1663295Y-408259D01*
X-1653371Y-401629D01*
X-1646741Y-391705D01*
X-1644413Y-380000D01*
Y-300000D01*
X-1646741Y-288295D01*
X-1653371Y-278371D01*
X-1663295Y-271741D01*
X-1675000Y-269412D01*
X-1715121D01*
X-1794314Y-190219D01*
Y-4781D01*
X-1735219Y54314D01*
X-1672376D01*
X-1672375Y54314D01*
X-1635881D01*
X-1630289Y47499D01*
Y31446D01*
X-1645289Y21423D01*
X-1650301Y23500D01*
X-1669198D01*
X-1686657Y16268D01*
X-1700018Y2907D01*
X-1707250Y-14552D01*
Y-33448D01*
X-1700018Y-50907D01*
X-1686657Y-64269D01*
X-1669198Y-71500D01*
X-1650301D01*
X-1632843Y-64269D01*
X-1619481Y-50907D01*
X-1612250Y-33449D01*
X-1602541Y-25481D01*
X-1602250Y-25539D01*
X-1502250D01*
X-1491520Y-23405D01*
X-1487744Y-20882D01*
X-1360000D01*
X-1359999Y-20882D01*
X-1323381D01*
X-1306051Y-28060D01*
X-1283948D01*
X-1263528Y-19601D01*
X-1247898Y-3972D01*
X-1239440Y16449D01*
Y38552D01*
X-1247898Y58972D01*
X-1263528Y74602D01*
X-1283948Y83060D01*
X-1306051D01*
X-1326472Y74602D01*
X-1330192Y70881D01*
X-1360000D01*
X-1360001Y70881D01*
X-1467827D01*
X-1474285Y78750D01*
Y101250D01*
X-1476128Y110517D01*
X-1479123Y115000D01*
X-1476128Y119483D01*
X-1474285Y128750D01*
Y151249D01*
X-1467606Y154166D01*
X-1454689Y162796D01*
X-1442301Y175185D01*
X-1213217D01*
X-939878Y-98153D01*
X-926962Y-106784D01*
X-911725Y-109815D01*
X158051D01*
X244892Y-196656D01*
X239152Y-210514D01*
X157740D01*
X144083Y-213231D01*
X132506Y-220966D01*
X92008Y-261464D01*
X27850D01*
X14194Y-264181D01*
X2617Y-271916D01*
X-72234Y-346766D01*
X-79969Y-358344D01*
X-82686Y-372000D01*
Y-417928D01*
X-82771Y-417964D01*
X-100536Y-435728D01*
X-110150Y-458939D01*
Y-480975D01*
X-118949Y-486772D01*
X-124008Y-488330D01*
X-132032Y-480306D01*
X-147618Y-471308D01*
X-165001Y-466650D01*
X-182998D01*
X-200382Y-471308D01*
X-215968Y-480306D01*
X-228693Y-493032D01*
X-237692Y-508618D01*
X-242350Y-526001D01*
Y-533780D01*
X-257350Y-539994D01*
X-274787Y-522557D01*
X-289672Y-512611D01*
X-307230Y-509118D01*
X-399145D01*
X-403052Y-507500D01*
X-421948D01*
X-439407Y-514732D01*
X-452768Y-528093D01*
X-460000Y-545552D01*
Y-564448D01*
X-452768Y-581906D01*
X-439407Y-595268D01*
X-421948Y-602500D01*
X-403052D01*
X-399145Y-600881D01*
X-326235D01*
X-262900Y-664216D01*
X-269113Y-679216D01*
X-359048D01*
X-360886Y-677378D01*
X-364732Y-668093D01*
X-378093Y-654731D01*
X-395552Y-647500D01*
X-414448D01*
X-431906Y-654731D01*
X-445268Y-668093D01*
X-452500Y-685552D01*
Y-704448D01*
X-445268Y-721906D01*
X-431906Y-735268D01*
X-414448Y-742500D01*
X-411118D01*
X-404779Y-748838D01*
X-391548Y-757679D01*
X-375941Y-760784D01*
X-375940Y-760783D01*
X-234155D01*
X-234153Y-760784D01*
X-41501D01*
X-41500Y-760784D01*
X-25893Y-757679D01*
X-12662Y-748838D01*
X74527Y-661650D01*
X92561D01*
X115772Y-652036D01*
X133536Y-634272D01*
X143150Y-611061D01*
Y-585939D01*
X133536Y-562728D01*
X115772Y-544964D01*
X111315Y-543118D01*
Y-526882D01*
X115772Y-525036D01*
X133536Y-507272D01*
X135382Y-502815D01*
X151618D01*
X153464Y-507272D01*
X171229Y-525036D01*
X194439Y-534650D01*
X219561D01*
X242772Y-525036D01*
X260536Y-507272D01*
X269165Y-486440D01*
X278327Y-482508D01*
X285150Y-481211D01*
X292032Y-488094D01*
X307618Y-497092D01*
X325002Y-501750D01*
X342999D01*
X360382Y-497092D01*
X375968Y-488094D01*
X388694Y-475368D01*
X397692Y-459782D01*
X402350Y-442398D01*
Y-424401D01*
X397692Y-407018D01*
X388694Y-391432D01*
X375968Y-378706D01*
X360382Y-369708D01*
X342999Y-365050D01*
X325002D01*
X307618Y-369708D01*
X292032Y-378706D01*
X279307Y-391432D01*
X270308Y-407018D01*
X266659Y-420638D01*
X256347Y-425295D01*
X250650Y-425842D01*
X242772Y-417964D01*
X219561Y-408350D01*
X194439D01*
X171229Y-417964D01*
X153464Y-435728D01*
X151618Y-440185D01*
X135382D01*
X133536Y-435728D01*
X126458Y-428650D01*
Y-398659D01*
X175856Y-349261D01*
X427248D01*
X435266Y-364261D01*
X434241Y-365795D01*
X431912Y-377500D01*
Y-457500D01*
X434241Y-469205D01*
X440871Y-479129D01*
X450795Y-485759D01*
X462500Y-488088D01*
X488201D01*
X520114Y-520000D01*
X517178Y-529652D01*
X514384Y-535484D01*
X498093Y-542232D01*
X484732Y-555594D01*
X477500Y-573052D01*
Y-591948D01*
X479118Y-595855D01*
Y-685995D01*
X425996Y-739118D01*
X415000D01*
X413522Y-739412D01*
X370000D01*
X358295Y-741741D01*
X348371Y-748371D01*
X341741Y-758295D01*
X339413Y-770000D01*
Y-850000D01*
X341741Y-861705D01*
X346825Y-869314D01*
X344203Y-878226D01*
X340357Y-884314D01*
X340074D01*
X326417Y-887031D01*
X314840Y-894766D01*
X297266Y-912340D01*
X289531Y-923917D01*
X286814Y-937574D01*
Y-965000D01*
X270000D01*
Y-1175000D01*
X375000D01*
Y-965000D01*
X386142Y-955686D01*
X507426D01*
X508987Y-955375D01*
X520000Y-968478D01*
Y-1175000D01*
X625000D01*
Y-1055947D01*
X625686Y-1052500D01*
Y-982282D01*
X702282Y-905686D01*
X845888D01*
X859545Y-902969D01*
X871122Y-895234D01*
X937481Y-828874D01*
X937588Y-828864D01*
X953266Y-834303D01*
X954241Y-839205D01*
X960871Y-849129D01*
X970795Y-855759D01*
X977099Y-857013D01*
X982354Y-869855D01*
X982314Y-873011D01*
X982232Y-873094D01*
X975000Y-890552D01*
Y-909448D01*
X982232Y-926906D01*
X995594Y-940268D01*
X1011808Y-946985D01*
X1063661Y-998838D01*
X1063662Y-998838D01*
X1076893Y-1007679D01*
X1092500Y-1010784D01*
X1092501Y-1010784D01*
X1476996D01*
X1476997Y-1010784D01*
X1492604Y-1007679D01*
X1505835Y-998838D01*
X1898838Y-605836D01*
X1898838Y-605835D01*
X1907679Y-592604D01*
X1910784Y-576997D01*
Y-347500D01*
X1907679Y-331893D01*
X1898838Y-318662D01*
X1898838Y-318661D01*
X1781339Y-201162D01*
X1768107Y-192321D01*
X1752500Y-189216D01*
X1752499Y-189217D01*
X1508128D01*
X1505179Y-174393D01*
X1496338Y-161162D01*
X1496338Y-161161D01*
X1492500Y-157324D01*
Y-90392D01*
X1519999D01*
X1520000Y-90392D01*
X1527804Y-88840D01*
X1534419Y-84419D01*
X1559419Y-59419D01*
X1563840Y-52804D01*
X1565392Y-45000D01*
Y82500D01*
X1563840Y90304D01*
X1559419Y96919D01*
X1559419Y96920D01*
X1544091Y112247D01*
X1544420Y115581D01*
X1544420Y115581D01*
X1579419Y150581D01*
X1583840Y157196D01*
X1585392Y165000D01*
Y520000D01*
Y1152499D01*
X1585392Y1152500D01*
X1583840Y1160304D01*
X1579419Y1166919D01*
X1579418Y1166920D01*
X1282697Y1463642D01*
X1288437Y1477500D01*
X1950908D01*
X1985538Y1470611D01*
D02*
G37*
G36*
X944608Y1004053D02*
Y815392D01*
X820000D01*
X812196Y813840D01*
X805581Y809419D01*
X805580Y809418D01*
X793081Y796919D01*
X788660Y790304D01*
X787108Y782500D01*
Y774655D01*
X784909Y773185D01*
X697574D01*
X683917Y770469D01*
X672340Y762733D01*
X549766Y640160D01*
X542031Y628582D01*
X539314Y614926D01*
Y602500D01*
X489107D01*
X482893Y617500D01*
X517208Y651814D01*
X523136D01*
X536793Y654531D01*
X548370Y662266D01*
X600233Y714130D01*
X607969Y725707D01*
X610686Y739364D01*
Y805000D01*
X610000Y808447D01*
Y862500D01*
X540000D01*
Y808447D01*
X539314Y805000D01*
Y754145D01*
X508355Y723186D01*
X502426D01*
X488770Y720469D01*
X477193Y712734D01*
X430145Y665686D01*
X377500D01*
Y710000D01*
X323447D01*
X320000Y710686D01*
X297500D01*
X294052Y710000D01*
X262500D01*
Y690467D01*
X167266Y595234D01*
X159531Y583656D01*
X156814Y570000D01*
Y332500D01*
X159531Y318844D01*
X167266Y307267D01*
X287267Y187266D01*
X298844Y179531D01*
X312500Y176814D01*
X312999D01*
X315047Y174766D01*
X326624Y167031D01*
X340281Y164314D01*
X415218D01*
X524608Y54925D01*
Y50000D01*
X526160Y42196D01*
X530000Y36450D01*
Y32500D01*
X535190D01*
X537196Y31160D01*
X545000Y29608D01*
X563524D01*
X565000Y29314D01*
X566476Y29608D01*
X595000D01*
X602803Y31160D01*
X609419Y35581D01*
X613840Y42196D01*
X614314Y44584D01*
X625000Y55000D01*
X887071D01*
X896394Y51394D01*
X900000Y42071D01*
Y-20000D01*
Y-120000D01*
Y-212071D01*
X896394Y-221395D01*
X887071Y-225000D01*
X632929D01*
X623606Y-221395D01*
X620000Y-212071D01*
Y-120000D01*
Y-0D01*
X575948D01*
X572500Y686D01*
X560000D01*
X556552Y-0D01*
X525000D01*
Y-18114D01*
X492590Y-18114D01*
X482558Y-11411D01*
X465000Y-7919D01*
X452500D01*
Y20000D01*
X366932D01*
X362500Y20881D01*
X354936D01*
X152909Y222909D01*
X135882Y239936D01*
Y708495D01*
X303274Y875888D01*
X331081Y848081D01*
X337697Y843660D01*
X340000Y843202D01*
Y747500D01*
X410000D01*
Y842108D01*
X432425D01*
X439314Y835219D01*
Y805000D01*
X440000Y801552D01*
Y747500D01*
X510000D01*
Y801552D01*
X510686Y805000D01*
Y850000D01*
X510000Y853448D01*
Y862500D01*
X508199D01*
X507969Y863656D01*
X500233Y875234D01*
X482098Y893369D01*
X480000Y907500D01*
X480000D01*
Y1037208D01*
X911454D01*
X944608Y1004053D01*
D02*
G37*
G36*
X-1240000Y850000D02*
Y680000D01*
X-1220000Y660000D01*
Y490000D01*
X-1250000Y460000D01*
X-1460000D01*
X-1475000Y475000D01*
X-1496163D01*
X-1498500Y475465D01*
X-1606000D01*
X-1610000Y489963D01*
Y521702D01*
X-1602250Y534461D01*
X-1554467D01*
X-1552250Y534020D01*
X-1511186D01*
X-1508970Y534461D01*
X-1502250D01*
X-1499542Y535000D01*
X-1485000D01*
X-1400000Y620000D01*
Y628412D01*
X-1397651Y631927D01*
X-1393770Y651436D01*
Y856230D01*
X-1385000Y865000D01*
X-1255000D01*
X-1240000Y850000D01*
D02*
G37*
G36*
X-870000Y840000D02*
X-610000D01*
X-580000Y820000D01*
X-490000D01*
X-470000Y800000D01*
Y690000D01*
X-490000Y670000D01*
X-671576D01*
X-731576Y610000D01*
X-870000D01*
Y580000D01*
X-980000Y470000D01*
X-1160000D01*
X-1190000Y500000D01*
Y660000D01*
X-1140000Y710000D01*
Y850000D01*
X-1125000Y865000D01*
X-895000D01*
X-870000Y840000D01*
D02*
G37*
G36*
X-785686Y200000D02*
X-782969Y186344D01*
X-775234Y174766D01*
X-675234Y74766D01*
X-663657Y67031D01*
X-650000Y64314D01*
X-150000D01*
X-136344Y67031D01*
X-124766Y74766D01*
X25234Y224766D01*
X29119Y230581D01*
X44119Y226031D01*
Y220931D01*
X47611Y203373D01*
X55973Y190859D01*
X30113Y165000D01*
X23052D01*
X5594Y157768D01*
X-7768Y144406D01*
X-15000Y126948D01*
Y108052D01*
X-7768Y90593D01*
X5594Y77231D01*
X23052Y70000D01*
X41948D01*
X45855Y71618D01*
X47500D01*
X65058Y75111D01*
X79943Y85057D01*
X120466Y125579D01*
X197730Y48315D01*
X191516Y33315D01*
X-868931D01*
X-1142269Y306653D01*
X-1155186Y315284D01*
X-1170423Y318315D01*
X-1377847D01*
X-1423816Y364283D01*
X-1435393Y372019D01*
X-1449049Y374735D01*
X-1470990D01*
X-1474285Y378750D01*
Y401250D01*
X-1476128Y410517D01*
X-1479123Y415000D01*
X-1476128Y419483D01*
X-1474285Y428750D01*
Y428824D01*
X-1460000Y439608D01*
X-1340131D01*
Y405166D01*
X-1342500Y399448D01*
Y380552D01*
X-1335268Y363094D01*
X-1321906Y349732D01*
X-1304448Y342500D01*
X-1285552D01*
X-1268093Y349732D01*
X-1254732Y363094D01*
X-1247500Y380552D01*
Y399448D01*
X-1248368Y401544D01*
Y439933D01*
X-1242196Y441161D01*
X-1235580Y445581D01*
X-1235580Y445582D01*
X-1217653Y463509D01*
X-1207000Y474000D01*
X-1203367Y473854D01*
X-1197264Y473337D01*
X-1190296Y471457D01*
X-1174419Y455581D01*
X-1167804Y451160D01*
X-1160000Y449608D01*
X-980001D01*
X-980000Y449608D01*
X-972196Y451160D01*
X-965581Y455581D01*
X-855581Y565581D01*
X-851160Y572196D01*
X-849608Y580000D01*
Y589608D01*
X-785686D01*
Y200000D01*
D02*
G37*
G36*
X888283Y386250D02*
X755661Y253628D01*
X740338Y254875D01*
X735904Y261142D01*
X741076Y277539D01*
X753323Y282612D01*
X767388Y296677D01*
X775000Y315054D01*
Y334946D01*
X767388Y353323D01*
X753323Y367388D01*
X734946Y375000D01*
X731533D01*
X710686Y395847D01*
Y542634D01*
X716323Y546735D01*
X725097Y549435D01*
X888283Y386250D01*
D02*
G37*
G36*
X787500Y639999D02*
Y640000D01*
X802108Y639053D01*
X900581Y540581D01*
X907197Y536160D01*
X915000Y534608D01*
X1281554D01*
X1299608Y516553D01*
Y157500D01*
X1285865Y149705D01*
X1282007Y149332D01*
X1271953Y159386D01*
X1261919Y169418D01*
X1261919Y169419D01*
X1255303Y173840D01*
X1247499Y175392D01*
X1112500D01*
X1104696Y173840D01*
X1098081Y169419D01*
X1098080Y169419D01*
X1009885Y81224D01*
X1009422Y81184D01*
X994074Y86626D01*
X993840Y87803D01*
X990000Y93550D01*
Y97500D01*
X984808D01*
X982803Y98840D01*
X975000Y100392D01*
X970457D01*
X964717Y114250D01*
X1000234Y149767D01*
X1007969Y161344D01*
X1010686Y175000D01*
Y285219D01*
X1052967Y327500D01*
X1059448D01*
X1076906Y334732D01*
X1090268Y348094D01*
X1097500Y365552D01*
Y384448D01*
X1090268Y401906D01*
X1076906Y415268D01*
X1059448Y422500D01*
X1040552D01*
X1023093Y415268D01*
X1009732Y401906D01*
X1002500Y384448D01*
Y377967D01*
X949766Y325234D01*
X942031Y313656D01*
X939314Y300000D01*
Y241113D01*
X924314Y234900D01*
X915822Y243392D01*
X898364Y250624D01*
X879467D01*
X871507Y247326D01*
X863010Y260043D01*
X950234Y347266D01*
X957969Y358844D01*
X960686Y372500D01*
Y400000D01*
X957969Y413656D01*
X950234Y425234D01*
X765686Y609781D01*
Y640000D01*
X787500D01*
X787500Y639999D01*
D02*
G37*
G36*
X-469330Y654181D02*
X-460882Y650681D01*
Y630468D01*
X-466629Y626628D01*
X-473259Y616705D01*
X-475588Y605000D01*
Y525000D01*
X-473259Y513294D01*
X-466629Y503371D01*
X-460881Y499531D01*
Y455468D01*
X-466629Y451629D01*
X-473259Y441705D01*
X-475588Y430000D01*
Y350000D01*
X-473259Y338294D01*
X-466629Y328371D01*
X-460881Y324531D01*
Y280468D01*
X-466629Y276628D01*
X-473259Y266705D01*
X-475588Y254999D01*
Y175000D01*
X-473259Y163294D01*
X-466629Y153371D01*
X-462610Y150686D01*
X-467160Y135686D01*
X-635219D01*
X-714314Y214781D01*
Y598423D01*
X-663129Y649608D01*
X-490000D01*
X-482196Y651160D01*
X-475882Y655379D01*
X-469330Y654181D01*
D02*
G37*
G36*
X378000Y1480000D02*
X1237500D01*
X1565000Y1152500D01*
Y520000D01*
Y165000D01*
X1530000Y130000D01*
X1342500D01*
Y135000D01*
X1320000Y157500D01*
Y525000D01*
X1290000Y555000D01*
X915000D01*
X807500Y662500D01*
Y782500D01*
X820000Y795000D01*
X965000D01*
Y1012500D01*
X919900Y1057600D01*
X450400D01*
Y862500D01*
X345500D01*
X225400Y982600D01*
Y1132600D01*
X75400Y1282600D01*
X-324600D01*
X-350000Y1275000D01*
X-749600D01*
Y1382600D01*
X-674600Y1482600D01*
X375400D01*
X378000Y1480000D01*
D02*
G37*
G36*
X925000Y94500D02*
X910500Y80000D01*
X895000D01*
Y130000D01*
X925000D01*
Y94500D01*
D02*
G37*
G36*
X625000Y80000D02*
X609500D01*
X595000Y94500D01*
Y130000D01*
X625000D01*
Y80000D01*
D02*
G37*
G36*
X975000Y50000D02*
X925000D01*
Y65500D01*
X939500Y80000D01*
X975000D01*
Y50000D01*
D02*
G37*
G36*
X595000Y65500D02*
Y50000D01*
X545000D01*
Y80000D01*
X580500D01*
X595000Y65500D01*
D02*
G37*
G36*
X1247500Y155000D02*
Y154999D01*
X1257534Y144966D01*
X1297500Y105000D01*
X1522500D01*
X1545000Y82500D01*
Y-45000D01*
X1520000Y-70000D01*
X1070000D01*
X1047500Y-47500D01*
X1012500D01*
Y55000D01*
X1112500Y155000D01*
X1247499D01*
X1247500Y155000D01*
D02*
G37*
G36*
X975000Y-250000D02*
X939500D01*
X925000Y-235500D01*
Y-220000D01*
X975000D01*
Y-250000D01*
D02*
G37*
G36*
X595000Y-235500D02*
X580500Y-250000D01*
X545000D01*
Y-220000D01*
X595000D01*
Y-235500D01*
D02*
G37*
G36*
X925000Y-264500D02*
Y-300000D01*
X895000D01*
Y-250000D01*
X910500D01*
X925000Y-264500D01*
D02*
G37*
G36*
X625000Y-300000D02*
X595000D01*
Y-264500D01*
X609500Y-250000D01*
X625000D01*
Y-300000D01*
D02*
G37*
G36*
X1429821Y-225105D02*
X1438662Y-238336D01*
X1459164Y-258838D01*
X1472395Y-267679D01*
X1488003Y-270784D01*
X1488004Y-270784D01*
X1735607D01*
X1829217Y-364393D01*
Y-560104D01*
X1460104Y-929217D01*
X1218847D01*
X1210513Y-916745D01*
X1212500Y-911948D01*
Y-893052D01*
X1209925Y-886836D01*
Y-851938D01*
X1214129Y-849129D01*
X1220759Y-839205D01*
X1221918Y-833382D01*
X1309145D01*
X1313052Y-835000D01*
X1331948D01*
X1349406Y-827768D01*
X1362768Y-814407D01*
X1370000Y-796948D01*
Y-778052D01*
X1362768Y-760594D01*
X1349406Y-747232D01*
X1331948Y-740000D01*
X1313052D01*
X1309145Y-741619D01*
X1221918D01*
X1220759Y-735795D01*
X1214129Y-725871D01*
X1204205Y-719241D01*
X1192500Y-716912D01*
X1132500D01*
X1120795Y-719241D01*
X1110871Y-725871D01*
X1104241Y-735795D01*
X1101912Y-747500D01*
Y-827500D01*
X1104241Y-839205D01*
X1110871Y-849129D01*
X1118162Y-854000D01*
Y-891454D01*
X1117500Y-893052D01*
Y-911948D01*
X1104189Y-919009D01*
X1099634Y-919457D01*
X1069485Y-889308D01*
X1062769Y-873094D01*
X1058939Y-869264D01*
X1058730Y-868667D01*
X1061664Y-850776D01*
X1064129Y-849129D01*
X1070759Y-839205D01*
X1073088Y-827500D01*
Y-747500D01*
X1070759Y-735795D01*
X1064129Y-725871D01*
X1054205Y-719241D01*
X1042500Y-716912D01*
X982500D01*
X970795Y-719241D01*
X960871Y-725871D01*
X955000Y-734659D01*
X953916Y-734781D01*
X940000Y-725552D01*
X932769Y-708094D01*
X919407Y-694732D01*
X901948Y-687500D01*
X895468D01*
X888186Y-680218D01*
Y-489781D01*
X952956Y-425011D01*
X966814Y-430751D01*
Y-610000D01*
X969531Y-623656D01*
X977266Y-635233D01*
X988844Y-642969D01*
X1002500Y-645686D01*
X1027500D01*
Y-677500D01*
X1162500D01*
Y-677500D01*
X1177500Y-677012D01*
X1178980Y-684449D01*
X1184616Y-692884D01*
X1193050Y-698520D01*
X1203000Y-700499D01*
X1322000D01*
X1331949Y-698520D01*
X1340384Y-692884D01*
X1346020Y-684449D01*
X1347999Y-674500D01*
Y-575500D01*
X1346020Y-565551D01*
X1340384Y-557116D01*
X1331949Y-551480D01*
X1322000Y-549501D01*
X1203000D01*
X1193050Y-551480D01*
X1184616Y-557116D01*
X1178980Y-565551D01*
X1177500Y-572988D01*
X1162500Y-571511D01*
Y-542500D01*
X1038186D01*
Y-412356D01*
X1077881Y-372660D01*
X1085617Y-361083D01*
X1088333Y-347426D01*
Y-284457D01*
X1103334Y-275963D01*
X1115000Y-278283D01*
X1338107D01*
X1411189Y-351365D01*
X1414616Y-367116D01*
X1408980Y-375551D01*
X1407000Y-385500D01*
Y-484500D01*
X1408980Y-494450D01*
X1414616Y-502884D01*
X1423050Y-508520D01*
X1433000Y-510500D01*
X1552000D01*
X1561949Y-508520D01*
X1570384Y-502884D01*
X1576020Y-494450D01*
X1577999Y-484500D01*
Y-465783D01*
X1600607D01*
X1617500Y-482677D01*
Y-560000D01*
X1752500D01*
Y-425000D01*
X1675177D01*
X1646338Y-396162D01*
X1633107Y-387321D01*
X1617500Y-384216D01*
X1617499Y-384216D01*
X1577744D01*
X1576020Y-375551D01*
X1570384Y-367116D01*
X1561949Y-361480D01*
X1552000Y-359501D01*
X1502468D01*
Y-344184D01*
X1499364Y-328577D01*
X1490523Y-315346D01*
X1490522Y-315346D01*
X1404035Y-228858D01*
X1409775Y-215000D01*
X1427811D01*
X1429821Y-225105D01*
D02*
G37*
G36*
X679314Y-665122D02*
Y-697645D01*
X492645Y-884314D01*
X459643D01*
X455797Y-878226D01*
X453176Y-869314D01*
X458259Y-861705D01*
X460588Y-850000D01*
Y-827781D01*
X462559Y-827389D01*
X477444Y-817443D01*
X557443Y-737443D01*
X567389Y-722558D01*
X570882Y-705000D01*
Y-684270D01*
X585881Y-678056D01*
X593094Y-685268D01*
X610552Y-692500D01*
X629448D01*
X646907Y-685268D01*
X660268Y-671906D01*
X664314Y-662139D01*
X679314Y-665122D01*
D02*
G37*
%LPC*%
G36*
X-455000Y1232500D02*
X-695000D01*
Y1122500D01*
X-555882D01*
Y1052005D01*
X-558405Y1048230D01*
X-560539Y1037500D01*
Y932500D01*
X-558405Y921770D01*
X-552327Y912674D01*
X-543230Y906596D01*
X-532500Y904461D01*
X-487500D01*
X-476770Y906596D01*
X-467674Y912674D01*
X-461596Y921770D01*
X-459462Y932500D01*
Y1037500D01*
X-461596Y1048230D01*
X-464119Y1052005D01*
Y1122500D01*
X-455000D01*
Y1232500D01*
D02*
G37*
G36*
X-1554750Y-96396D02*
X-1664750D01*
X-1683024Y-98802D01*
X-1700052Y-105856D01*
X-1714674Y-117076D01*
X-1725895Y-131698D01*
X-1732948Y-148727D01*
X-1735354Y-167000D01*
X-1732948Y-185274D01*
X-1725895Y-202302D01*
X-1714674Y-216925D01*
X-1700052Y-228145D01*
X-1683024Y-235198D01*
X-1664750Y-237604D01*
X-1554750D01*
X-1536476Y-235198D01*
X-1519448Y-228145D01*
X-1504825Y-216925D01*
X-1493605Y-202302D01*
X-1486552Y-185274D01*
X-1484146Y-167000D01*
X-1486552Y-148727D01*
X-1493605Y-131698D01*
X-1504825Y-117076D01*
X-1519448Y-105856D01*
X-1536476Y-98802D01*
X-1554750Y-96396D01*
D02*
G37*
G36*
X342999Y-568250D02*
X325002D01*
X307618Y-572908D01*
X292032Y-581906D01*
X279307Y-594632D01*
X270308Y-610218D01*
X265650Y-627601D01*
Y-645598D01*
X270308Y-662982D01*
X279307Y-678568D01*
X292032Y-691294D01*
X307618Y-700292D01*
X325002Y-704950D01*
X342999D01*
X360382Y-700292D01*
X375968Y-691294D01*
X388694Y-678568D01*
X397692Y-662982D01*
X402350Y-645598D01*
Y-627601D01*
X397692Y-610218D01*
X388694Y-594632D01*
X375968Y-581906D01*
X360382Y-572908D01*
X342999Y-568250D01*
D02*
G37*
%LPD*%
D10*
X-387500Y-285000D02*
G03*
X-361691Y-347309I88118J0D01*
G01*
X675000Y805000D02*
Y897408D01*
X677500Y899908D01*
X525000Y760074D02*
Y805000D01*
X447574Y737500D02*
X502426D01*
X425000Y760074D02*
X447574Y737500D01*
X425000Y760074D02*
Y805000D01*
X575000Y739364D02*
Y805000D01*
X502426Y687500D02*
X523136D01*
X444926Y630000D02*
X502426Y687500D01*
X502426Y737500D02*
X525000Y760074D01*
X523136Y687500D02*
X575000Y739364D01*
X528798Y-53799D02*
X541250Y-66251D01*
X541250Y-66251D01*
X541201Y-53799D02*
X560000Y-35000D01*
X572500D01*
X528798Y-53799D02*
X541201D01*
X541250Y-66251D02*
X560000Y-85000D01*
X465000Y-53801D02*
X528798Y-53799D01*
X487500Y45000D02*
X517500Y15000D01*
X560000Y-85000D02*
X572500D01*
X517500Y15000D02*
X572500D01*
X340281Y200000D02*
X430000D01*
X327781Y212500D02*
X340281Y200000D01*
X312500Y212500D02*
X327781D01*
X192500Y332500D02*
X312500Y212500D01*
X192500Y332500D02*
Y570000D01*
X297500Y675000D01*
X262500Y417500D02*
Y527426D01*
X430000Y200000D02*
X565000Y65000D01*
X262500Y527426D02*
X365074Y630000D01*
X297500Y675000D02*
X320000D01*
X425000Y900000D02*
X475000Y850000D01*
Y805000D02*
Y850000D01*
X687500Y-870000D02*
X785000Y-772500D01*
X590000Y-967500D02*
X687500Y-870000D01*
X928388Y-787500D02*
X1012500D01*
X845888Y-870000D02*
X928388Y-787500D01*
X687500Y-870000D02*
X845888D01*
X1110000Y-625000D02*
X1262500D01*
X1095000Y-610000D02*
X1110000Y-625000D01*
X1002500Y-610000D02*
X1095000D01*
X852500Y-695000D02*
X892500Y-735000D01*
X642500Y-427426D02*
Y-417500D01*
Y-427426D02*
X667500Y-452426D01*
X715000D01*
Y-712426D02*
Y-452426D01*
X507426Y-920000D02*
X715000Y-712426D01*
Y-452426D02*
X860000Y-307426D01*
X785000Y-772500D02*
Y-453137D01*
X760000Y207500D02*
X925000Y372500D01*
X760000Y102500D02*
Y207500D01*
X925000Y372500D02*
Y400000D01*
X638787Y211213D02*
X660000Y190000D01*
X584265Y255000D02*
X628052Y211213D01*
X638787D01*
X577500Y255000D02*
X584265D01*
X603786Y403787D02*
X625000Y425000D01*
X556765Y357500D02*
X603052Y403787D01*
X550000Y357500D02*
X556765D01*
X603052Y403787D02*
X603786D01*
X485000Y235000D02*
Y460074D01*
X525000Y500074D02*
Y545000D01*
X485000Y460074D02*
X525000Y500074D01*
X485000Y235000D02*
X610000Y110000D01*
X710000Y102500D02*
Y228388D01*
X625000Y313389D02*
X710000Y228388D01*
X660000Y102500D02*
Y190000D01*
X625000Y313389D02*
Y425000D01*
X420000Y434265D02*
X425000Y439265D01*
Y545000D01*
X420000Y427500D02*
Y434265D01*
X625000Y425000D02*
Y545000D01*
X345000Y345074D02*
X362574Y327500D01*
X365735D02*
X378235Y315000D01*
X385000D01*
X362574Y327500D02*
X365735D01*
X345000Y345074D02*
Y492500D01*
X1095710Y-147500D02*
X1157500D01*
X1033211Y-85000D02*
X1095710Y-147500D01*
X994718Y-85000D02*
X1033211D01*
X322500Y-1070000D02*
Y-937574D01*
X340074Y-920000D01*
X507426D01*
X157740Y-246200D02*
X553800D01*
X565000Y-235000D01*
X90772Y-383877D02*
X161075Y-313575D01*
X566422D01*
X106790Y-297150D02*
X157740Y-246200D01*
X566422Y-313575D02*
X599997Y-280000D01*
X610000D01*
X27850Y-297150D02*
X106790D01*
X90772Y-460728D02*
Y-383877D01*
X80000Y-471500D02*
X90772Y-460728D01*
X-47000Y-372000D02*
X27850Y-297150D01*
X-47000Y-471500D02*
Y-372000D01*
X852500Y-695000D02*
Y-475000D01*
X960000Y-367500D01*
Y-240000D01*
X785000Y-453137D02*
X910000Y-328137D01*
X955000Y-235000D02*
X960000Y-240000D01*
X910000Y-328137D02*
Y-280000D01*
X910000D01*
X860000Y-307426D02*
Y-272500D01*
X1002500Y-610000D02*
Y-397574D01*
X1052648Y-347426D01*
X1002500Y-610000D02*
X1002500Y-610000D01*
X-1449049Y339050D02*
X-1388500Y278500D01*
X-1672375Y90000D02*
X-1552250D01*
X-1672375Y90000D02*
X-1672375Y90000D01*
X-1750000Y90000D02*
X-1672375D01*
X-1830000Y-205000D02*
Y10000D01*
X-1750000Y90000D01*
X-1705000Y-340000D02*
Y-330000D01*
X-1830000Y-205000D02*
X-1705000Y-330000D01*
X-1551300Y339050D02*
X-1449049D01*
X-1690000Y390000D02*
X-1552250D01*
X-1759750Y459750D02*
X-1690000Y390000D01*
X-1759750Y459750D02*
Y785250D01*
X-1695000Y850000D01*
Y860000D01*
X0Y250000D02*
Y850000D01*
X-150000Y100000D02*
X0Y250000D01*
X-650000Y100000D02*
X-150000D01*
X-750000Y200000D02*
X-650000Y100000D01*
X-135000Y985000D02*
X0Y850000D01*
X375000Y522500D02*
Y545000D01*
X345000Y492500D02*
X375000Y522500D01*
X625000Y875000D02*
X649908Y899908D01*
X625000Y805000D02*
Y875000D01*
X697574Y737500D02*
X812500D01*
X575000Y614926D02*
X697574Y737500D01*
X575000Y545000D02*
Y614926D01*
X525000Y805000D02*
Y900000D01*
X365074Y630000D02*
X444926D01*
X725000Y325000D02*
Y331065D01*
X675000Y381066D02*
Y545000D01*
Y381066D02*
X725000Y331065D01*
X878124Y203124D02*
X888916D01*
X860000Y185000D02*
X878124Y203124D01*
X860000Y102500D02*
Y185000D01*
X975000Y300000D02*
X1050000Y375000D01*
X975000Y175000D02*
Y300000D01*
X910000Y110000D02*
X975000Y175000D01*
X730000Y595000D02*
Y675000D01*
Y595000D02*
X925000Y400000D01*
X-320000Y985000D02*
X-135000D01*
X-750000Y200000D02*
Y710700D01*
X-790000Y750700D02*
X-787150Y747850D01*
X-750000Y710700D01*
X590000Y-1052500D02*
Y-967500D01*
X572500Y-1070000D02*
X590000Y-1052500D01*
X989497Y-185000D02*
X1052648Y-248151D01*
X947500Y-185000D02*
X989497D01*
X1052648Y-347426D02*
Y-248151D01*
X1012500Y-135000D02*
X1115000Y-237500D01*
X947500Y-135000D02*
X1012500D01*
X994718Y-85000D02*
X994718Y-85000D01*
X947500Y-85000D02*
X994718D01*
X947500Y-35000D02*
X1012500D01*
X1017500Y-30000D01*
D11*
X-575000Y1322500D02*
D03*
Y1177500D02*
D03*
D12*
X-790000Y979300D02*
D03*
Y750700D02*
D03*
X-215000Y1175700D02*
D03*
Y1404300D02*
D03*
D13*
X-1552250Y290000D02*
D03*
Y240000D02*
D03*
Y190000D02*
D03*
Y340000D02*
D03*
Y390000D02*
D03*
Y440000D02*
D03*
Y140000D02*
D03*
Y90000D02*
D03*
D14*
Y505000D02*
D03*
Y585000D02*
D03*
Y25000D02*
D03*
Y-55000D02*
D03*
D15*
X492500Y-417500D02*
D03*
X642500D02*
D03*
X-1705000Y-340000D02*
D03*
X-1555000D02*
D03*
X400000Y-810000D02*
D03*
X250000D02*
D03*
X1162500Y-787500D02*
D03*
X1012500D02*
D03*
X-265000Y215000D02*
D03*
X-415000D02*
D03*
X-415000Y565000D02*
D03*
X-265000D02*
D03*
X-415000Y390000D02*
D03*
X-265000D02*
D03*
X-1695000Y860000D02*
D03*
X-1545000D02*
D03*
D16*
X1180000Y222500D02*
D03*
Y97500D02*
D03*
X1095000Y-485000D02*
D03*
Y-610000D02*
D03*
X1685000Y-617500D02*
D03*
Y-492500D02*
D03*
X385000Y77500D02*
D03*
Y-47500D02*
D03*
X875000Y862500D02*
D03*
Y737500D02*
D03*
X-1075000Y937500D02*
D03*
Y812500D02*
D03*
X-1300000Y937500D02*
D03*
Y812500D02*
D03*
D17*
X565000Y-235000D02*
D03*
X955000Y65000D02*
D03*
X565000D02*
D03*
X955000Y-235000D02*
D03*
D18*
X610000Y110000D02*
D03*
X910000Y-280000D02*
D03*
X610000D02*
D03*
X910000Y110000D02*
D03*
D19*
X947500Y-185000D02*
D03*
Y-135000D02*
D03*
Y-85000D02*
D03*
Y-35000D02*
D03*
Y15000D02*
D03*
X572500D02*
D03*
Y-35000D02*
D03*
Y-85000D02*
D03*
Y-135000D02*
D03*
Y-185000D02*
D03*
D20*
X860000Y102500D02*
D03*
X810000D02*
D03*
X760000D02*
D03*
X710000D02*
D03*
X660000D02*
D03*
Y-272500D02*
D03*
X710000D02*
D03*
X760000D02*
D03*
X810000D02*
D03*
X860000D02*
D03*
D21*
X1262500Y-435000D02*
D03*
Y-625000D02*
D03*
X1492500Y-435000D02*
D03*
Y-625000D02*
D03*
D22*
X1550000Y-147500D02*
D03*
X1425000D02*
D03*
X537500Y975000D02*
D03*
X412500D02*
D03*
X1247500Y440000D02*
D03*
X1372500D02*
D03*
D23*
X320000Y675000D02*
D03*
X730000D02*
D03*
D24*
X375000Y545000D02*
D03*
X425000D02*
D03*
X475000D02*
D03*
X525000D02*
D03*
X575000D02*
D03*
X625000D02*
D03*
X675000D02*
D03*
Y805000D02*
D03*
X625000D02*
D03*
X575000D02*
D03*
X525000D02*
D03*
X475000D02*
D03*
X425000D02*
D03*
X375000D02*
D03*
D25*
X72500Y-1070000D02*
D03*
X197500D02*
D03*
X447500D02*
D03*
X572500D02*
D03*
X322500D02*
D03*
X697500D02*
D03*
D26*
X-112500Y-1350000D02*
D03*
X882500D02*
D03*
D27*
X1435000Y213500D02*
D03*
Y16500D02*
D03*
D28*
X-320000Y745000D02*
D03*
X-415000D02*
D03*
X-510000D02*
D03*
Y985000D02*
D03*
X-415000D02*
D03*
X-320000D02*
D03*
D29*
X-1293500Y572500D02*
D03*
X-1096500D02*
D03*
D30*
X207000Y-471500D02*
D03*
X80000D02*
D03*
X-47000D02*
D03*
X207000Y-598500D02*
D03*
X80000D02*
D03*
X-47000D02*
D03*
D31*
X-234154Y-720000D02*
X-234153Y-720000D01*
X-375941Y-720000D02*
X-234154D01*
X-405000Y-695000D02*
X-400941D01*
X-375941Y-720000D01*
X-234153Y-720000D02*
X-41500D01*
X80000Y-598500D01*
X880000Y732500D02*
X1159069D01*
X1182500Y755931D01*
Y1067500D01*
X875000Y737500D02*
X880000Y732500D01*
X967500Y1282500D02*
X1182500Y1067500D01*
X542500Y1282500D02*
X967500D01*
X412500Y975000D02*
Y1152500D01*
X542500Y1282500D01*
X304999Y157500D02*
X385000Y77500D01*
X272500Y157500D02*
X304999D01*
X425000Y900000D02*
Y962500D01*
X412500Y975000D02*
X425000Y962500D01*
X1476997Y-970000D02*
X1870000Y-576997D01*
X1092500Y-970000D02*
X1476997D01*
X1022500Y-900000D02*
X1092500Y-970000D01*
X1870000Y-576997D02*
Y-347500D01*
X1752500Y-230000D02*
X1870000Y-347500D01*
X1467500Y-209497D02*
X1488003Y-230000D01*
X1425000Y-147500D02*
X1467500Y-190000D01*
Y-209497D02*
Y-190000D01*
X1488003Y-230000D02*
X1752500D01*
X1461684Y-400523D02*
Y-344184D01*
X1355000Y-237500D02*
X1461684Y-344184D01*
Y-400523D02*
X1486161Y-425000D01*
X1487500D02*
X1617500D01*
X1685000Y-492500D01*
X1115000Y-237500D02*
X1355000D01*
X1157500Y-147500D02*
X1425000D01*
X1017500Y-30000D02*
X1087500D01*
D32*
X-101673Y-643350D02*
X-56823Y-598500D01*
X-218880Y-643350D02*
X-101673D01*
X-307230Y-555000D02*
X-218880Y-643350D01*
X677500Y899908D02*
X823210D01*
X649908D02*
X677500D01*
X415000Y-806058D02*
Y-785000D01*
X445000D02*
X525000Y-705000D01*
Y-582500D01*
X415000Y-785000D02*
X445000D01*
X-1295000Y390000D02*
X-1294250Y390750D01*
Y571750D01*
X-1293500Y572500D01*
X-1390000Y-385371D02*
X-1302984Y-472386D01*
X-1390000Y-385371D02*
Y-340000D01*
X-1360000Y-310000D01*
X-1555000Y-340000D02*
X-1390000D01*
X-1360000Y-310000D02*
Y-167500D01*
X-1552250Y-55000D02*
X-1547250Y-60000D01*
X-1467500D01*
X-1360000Y-167500D01*
X120466Y190465D02*
X335931Y-25000D01*
X90000Y220931D02*
X120466Y190465D01*
X47500Y117500D02*
X120466Y190465D01*
X32500Y117500D02*
X47500D01*
X1492500Y-626250D02*
X1676250D01*
X-405000Y-970000D02*
X-164500D01*
X207000Y-598500D01*
X311789Y952500D02*
X390000D01*
X305000Y945711D02*
X311789Y952500D01*
X90000Y727500D02*
X305000Y942500D01*
Y945711D01*
X195000Y-1067500D02*
X197500Y-1070000D01*
X195000Y-1067500D02*
Y-875000D01*
X250000Y-820000D02*
Y-810000D01*
X195000Y-875000D02*
X250000Y-820000D01*
X72500Y-1070000D02*
X197500D01*
X207000Y-757000D02*
Y-598500D01*
Y-757000D02*
X250000Y-800000D01*
Y-810000D02*
Y-800000D01*
X-315000Y710000D02*
X-294290D01*
X-265000Y680710D01*
Y565000D02*
Y680710D01*
X-320000Y715000D02*
Y745000D01*
Y715000D02*
X-315000Y710000D01*
X875000Y862500D02*
Y982500D01*
X537500Y975000D02*
X612592Y899908D01*
X649908D01*
X1075000Y222500D02*
X1180000D01*
X1247500Y290000D01*
Y440000D01*
X1492500Y-626250D02*
Y-625000D01*
Y-752500D02*
Y-626250D01*
X1492520Y-767878D02*
Y-752520D01*
X1492500Y-752500D02*
X1492520Y-752520D01*
X1164043Y-901544D02*
Y-789043D01*
X1162500Y-787500D02*
X1164043Y-789043D01*
Y-901544D02*
X1165000Y-902500D01*
X-412500Y-555000D02*
X-307230D01*
X-56823Y-598500D02*
X-47000D01*
X1162500Y-787500D02*
X1322500D01*
X620000Y-645000D02*
Y-555000D01*
X492500Y-427500D02*
Y-417500D01*
Y-427500D02*
X620000Y-555000D01*
X170000Y1077500D02*
X232500D01*
X62500Y970000D02*
X170000Y1077500D01*
X-163853Y392500D02*
X-162500D01*
X-265000Y390000D02*
X-166353D01*
X-163853Y392500D01*
X-265000Y215000D02*
Y390000D01*
X390000Y952500D02*
X412500Y975000D01*
X90000Y220931D02*
Y727500D01*
X362500Y-25000D02*
X385000Y-47500D01*
X335931Y-25000D02*
X362500D01*
X1087500Y-30000D02*
X1352210D01*
X1393500Y-25000D02*
X1435000Y16500D01*
X1352210Y-30000D02*
X1357211Y-25000D01*
X1393500D01*
X391300Y-53801D02*
X465000D01*
X385000Y-47500D02*
X391300Y-53801D01*
X-1360000Y25000D02*
X-1320000D01*
X-1552250Y25000D02*
X-1360000D01*
X-1360000Y25000D01*
X-1547250Y500000D02*
X-1450000D01*
X-1552250Y505000D02*
X-1547250Y500000D01*
X823210Y899908D02*
X838118Y885000D01*
X852500D01*
X875000Y862500D01*
X812500Y737500D02*
X875000D01*
X525000Y900000D02*
Y952500D01*
X475000Y55000D02*
X485000Y45000D01*
X407500Y55000D02*
X475000D01*
X-415000Y215000D02*
Y390000D01*
X-520000Y1177500D02*
X-510000Y1167500D01*
Y985000D02*
Y1167500D01*
X-575000Y1177500D02*
X-520000D01*
X-317500Y747500D02*
X-152500D01*
X-320000Y745000D02*
X-317500Y747500D01*
X-152500D02*
X-150000Y750000D01*
X-415000Y565000D02*
X-415000Y564999D01*
Y390000D02*
Y564999D01*
X-415000Y565000D02*
Y745000D01*
X-415000Y745000D02*
X-415000Y745000D01*
X1676250Y-626250D02*
X1685000Y-617500D01*
X385000Y77500D02*
X407500Y55000D01*
D33*
X-1444750Y651436D02*
Y917250D01*
X-1460000Y932500D02*
X-1444750Y917250D01*
X-1552250Y585000D02*
X-1511186D01*
X-1444750Y651436D01*
X447500Y-1202500D02*
X527500Y-1282500D01*
X447500Y-1202500D02*
Y-1070000D01*
X527500Y-1282500D02*
X617353D01*
X695000Y-1204853D01*
Y-1072500D02*
X697500Y-1070000D01*
X695000Y-1204853D02*
Y-1072500D01*
X1145000Y-1070000D02*
X1197500Y-1122500D01*
X697500Y-1070000D02*
X1145000D01*
X-1545000Y870000D02*
Y1127500D01*
Y860000D02*
Y870000D01*
X-1455000Y937500D02*
X-1300000D01*
X-1460000Y932500D02*
X-1455000Y937500D01*
X-1482500Y932500D02*
X-1460000D01*
X-1545000Y870000D02*
X-1482500Y932500D01*
X-1075000Y937500D02*
X-1033200Y979300D01*
X-790000D01*
X-1300000Y937500D02*
X-1075000D01*
X-215000Y1175700D02*
X-70700D01*
X1662500Y-35000D02*
X1772500D01*
X1550000Y-147500D02*
X1662500Y-35000D01*
X1260000Y-432500D02*
Y-325000D01*
X1255000Y-427500D02*
X1260000Y-432500D01*
X1262500Y-435000D01*
X1152500Y-427500D02*
X1255000D01*
X1095000Y-485000D02*
X1152500Y-427500D01*
X-350000Y1150000D02*
X-240700D01*
X-215000Y1175700D01*
X-415000Y985000D02*
X-410000Y990000D01*
Y1090000D01*
X-350000Y1150000D01*
X1452500Y355000D02*
Y360000D01*
X1372500Y440000D02*
X1452500Y360000D01*
D34*
X200845Y-6500D02*
X323396Y-129050D01*
X-885423Y-6500D02*
X200845D01*
X296693Y-192150D02*
X482989D01*
X-911725Y-70000D02*
X174543D01*
X323396Y-129050D02*
X446604D01*
X174543Y-70000D02*
X296693Y-192150D01*
X499189Y-175950D02*
X512387D01*
X456687Y-128650D02*
X467486Y-117850D01*
X446604Y-129050D02*
X447004Y-128650D01*
X482989Y-192150D02*
X499189Y-175950D01*
X447004Y-128650D02*
X456687D01*
X-1458793Y215000D02*
X-1388500D01*
X-1196725D01*
X-1388500Y278500D02*
X-1170423D01*
X-1482843Y190950D02*
X-1458793Y215000D01*
X-1170423Y278500D02*
X-885423Y-6500D01*
X-1196725Y215000D02*
X-911725Y-70000D01*
X-1551300Y190950D02*
X-1482843D01*
X-1552250Y190000D02*
X-1551300Y190950D01*
D35*
X533098Y-125950D02*
X537789Y-130642D01*
X568142D01*
X572500Y-135000D01*
X512387Y-175950D02*
X521437Y-185000D01*
X572500D01*
X467486Y-126900D02*
Y-117850D01*
X512387Y-126900D02*
X513337Y-125950D01*
X533098D01*
X467486Y-126900D02*
X512387D01*
D36*
X-1450000Y500000D02*
X-1421000Y529000D01*
X-1325000D01*
X-550000Y1325000D02*
X-537500Y1337500D01*
X-450000D01*
X-219300Y1400000D02*
X-215000Y1404300D01*
X-387500Y1400000D02*
X-219300D01*
X-450000Y1337500D02*
X-387500Y1400000D01*
D37*
X-787150Y747850D02*
X-525000D01*
D38*
X-1300000Y579000D02*
X-1293500Y572500D01*
X-1300000Y579000D02*
Y812500D01*
X-1075000D02*
X-1000100D01*
X-938300Y750700D01*
D39*
X-790000D01*
X-1096500Y584500D02*
X-1080000Y601000D01*
X-1068000D01*
X-938300Y730700D01*
X-1096500Y572500D02*
Y584500D01*
D40*
X1435000Y213500D02*
X1452500Y231000D01*
Y355000D01*
D41*
X-1609750Y-167000D02*
D03*
Y697000D02*
D03*
D42*
X-1659750Y554000D02*
D03*
Y-24000D02*
D03*
D43*
X-2027750Y697000D02*
D03*
Y-167000D02*
D03*
D44*
X-1900000Y1250000D02*
D03*
Y-1250000D02*
D03*
X1900000D02*
D03*
Y1250000D02*
D03*
D45*
X334000Y-636600D02*
D03*
Y-433400D02*
D03*
X-174000Y-535000D02*
D03*
D46*
X-387500Y-285000D02*
D03*
X-1295000Y390000D02*
D03*
X-1302984Y-472386D02*
D03*
X-70700Y1175700D02*
D03*
X1772500Y-35000D02*
D03*
X1197500Y-1122500D02*
D03*
X-1545000Y1127500D02*
D03*
X525000Y-582500D02*
D03*
X32500Y117500D02*
D03*
X-405000Y-970000D02*
D03*
X272500Y157500D02*
D03*
X262500Y417500D02*
D03*
X875000Y982500D02*
D03*
X1075000Y222500D02*
D03*
X1492520Y-767878D02*
D03*
X1260000Y-325000D02*
D03*
X1165000Y-902500D02*
D03*
X1022500Y-900000D02*
D03*
X-412500Y-555000D02*
D03*
X-405000Y-695000D02*
D03*
X1322500Y-787500D02*
D03*
X892500Y-735000D02*
D03*
X620000Y-645000D02*
D03*
X62500Y970000D02*
D03*
X-162500Y392500D02*
D03*
X577500Y255000D02*
D03*
X550000Y357500D02*
D03*
X420000Y427500D02*
D03*
X385000Y315000D02*
D03*
X888916Y203124D02*
D03*
X1050000Y375000D02*
D03*
D47*
X-1295000Y27500D02*
D03*
D48*
X725000Y325000D02*
D03*
D49*
X-150000Y750000D02*
D03*
%TF.MD5,9d941f148c754184b107357d148982d2*%
M02*
